<svg xmlns="http://www.w3.org/2000/svg" width="390.21" height="320.38" viewBox="0 0 390.21 320.38"><defs><style>.a{fill:#fffde2;stroke:#ffe200;stroke-miterlimit:10;stroke-width:4px;}</style></defs><title>Asset 1</title><path class="a" d="M126,6H57.25c-.61,5.77-1.19,11.28-1.8,17-4.13,0-7.62-.16-11.09,0-7.76.42-14.21,3.51-18.93,9.85-5,6.72-6.3,14.57-6.54,22.61-.06,2.06-.57,2.62-2.24,2.94-4.74.89-9.48,1.81-14.6,2.79,0,4.69-.16,9.54.09,14.37a7.71,7.71,0,0,0,1.92,4.5c4,4.3,8.36,8.26,12.33,12.58a8.4,8.4,0,0,1,2.22,5.11q.18,63.74,0,127.48a7.83,7.83,0,0,1-2.06,4.8c-4.07,4.4-8.44,8.52-12.64,12.8-.75.77-1.73,1.78-1.75,2.71-.17,5.45-.09,10.91-.09,16.12l16.75,3.12c.14,10.47,1.53,20,8.6,27.62,7.54,8.13,17.58,7.81,28,7.43.6,5.87,1.17,11.39,1.75,17h70a5.51,5.51,0,0,0,7.54,0H254.06a5.63,5.63,0,0,0,6.63,0h71.82c.63-5.84,1.23-11.34,1.85-17.06,10.61.53,20.48.65,27.95-7.34,7.1-7.6,8.49-17.13,8.63-27.63l16.55-3.11C389,246,389,246,378.21,235.23a44.9,44.9,0,0,1-5-5.09,9.78,9.78,0,0,1-2.1-5.17q-.16-63.56,0-127.11a8.4,8.4,0,0,1,2.2-5.11c4-4.33,8.25-8.36,12.37-12.55.76-.77,1.84-1.74,1.87-2.65.17-5.56.08-11.13.08-16.26l-16.74-3.21c-.14-10.61-1.59-20.11-8.72-27.71-7.57-8.07-17.67-7.57-27.95-7.37-.6-5.93-1.16-11.46-1.73-17H262.72a5,5,0,0,0-3.44-3.78,6,6,0,0,0-1.7-.24,6,6,0,0,0-1.69.24A5,5,0,0,0,252.45,6H136.15a5,5,0,0,0-4.41-3.78c-.22,0-.44,0-.67,0s-.46,0-.68,0A5,5,0,0,0,126,6ZM53,29.47C47.63,42.12,38.13,50,25.56,55.41,24.91,40.18,31.88,26.53,53,29.47ZM8.21,68.4a2.94,2.94,0,0,1,1.42-2.13c3-.79,6-1.29,9.3-2v21C12.38,82.71,7.43,74.93,8.21,68.4ZM19,258.72,8.79,256.5C5.2,246.31,13.35,242.66,19,237.61Zm6.67,8.92c12.39,5.13,21.81,13.12,27.43,25.94C34.24,295.21,23.76,285.2,25.63,267.64Zm301,43.1H262.45a5.29,5.29,0,0,0-10.14,0H135.9a5.3,5.3,0,0,0-9.87,0H63.17c-.49-3.47-1-6.88-1.48-10.63h44.53c-.06-5.23,3.08-8.26,7.19-9.58,7.77-2.5,15.73-5.79,23.7-6.08,30.68-1.11,61.41-1.45,92.11-1.48,12.92,0,26,.27,38.53,4.14a62.15,62.15,0,0,1,10,4.1c3.35,1.7,5.92,4.22,5.66,8.83h44.64C327.57,303.68,327.12,307.07,326.64,310.74Zm10.18-17.33c5.39-12.59,14.85-20.53,27.16-25.73C365.37,281.23,358.39,296.93,336.82,293.41Zm44.45-37-10.36,2.25V237.43C379.45,242.21,382.44,247.68,381.27,256.46ZM370.84,64.29,381,66.44c3.64,10.07-4.39,13.85-10.14,20.07Zm-6.75-9c-12.36-5.15-21.79-13.12-27.38-25.94C355.63,27.88,366.26,38.08,364.09,55.32ZM342.82,48a144.58,144.58,0,0,0,18.55,12.28c2.69,1.5,3.32,2.87,3.32,5.59q-.1,68.07-.05,136.13c0,18.62-.05,37.25.06,55.87,0,2.47-.67,3.59-3,4.62-14.49,6.28-25.57,16.12-31.41,31.38-13.39,0-26.39,0-39.39,0a4,4,0,0,1-2.89-1.08c-6.24-8.61-15.64-11.39-25.25-12.93A216.48,216.48,0,0,0,231.91,277c-23.24-.41-46.49-.18-69.74-.11-14,0-27.91.53-41.47,4.34-7.29,2-14.11,4.89-18.8,11.35a4.46,4.46,0,0,1-3.18,1.23c-12.25.08-24.5.1-36.75,0a4.2,4.2,0,0,1-3.17-2c-6.62-15.06-18.37-24.44-33.46-30.53V61.75c8.62-3.56,17-7.9,23-15.2,3.86-4.63,6.89-10,10.09-15.11C59.38,30,60,29,62,29.05c12.25.12,24.5,0,36.75.1,1,0,2.48.24,3,.93,6.39,8.86,16,11.64,25.91,13.15A227,227,0,0,0,158,46c23.25.39,46.5.17,69.75.11C242,46,256.2,45.51,270,41.51c6.88-2,13.32-4.86,17.79-11a4.37,4.37,0,0,1,3.09-1.38c13-.09,26-.06,39.29-.06C333.16,36.18,336.65,43.18,342.82,48ZM328.09,22.8H283.6c0,5.74-3.69,8.69-8.18,10.09-7.56,2.36-15.3,5.4-23.05,5.67-30.57,1-61.16,1.42-91.75,1.45-13,0-26.22-.3-38.89-4.2a59.68,59.68,0,0,1-10.28-4.4c-3.09-1.63-5.38-4.12-5-8.44H61.68c.53-3.85,1-7.26,1.5-10.83h64.58a5.64,5.64,0,0,0,6.61,0h120.2a5.7,5.7,0,0,0,6,0h66C327.07,15.65,327.55,19.05,328.09,22.8Z"/><path d="M126,6H57.25c-.61,5.77-1.19,11.28-1.8,17-4.13,0-7.62-.16-11.09,0-7.76.42-14.21,3.51-18.93,9.85-5,6.72-6.3,14.57-6.54,22.61-.06,2.06-.57,2.62-2.24,2.94-4.74.89-9.48,1.81-14.6,2.79,0,4.69-.16,9.54.09,14.37a7.71,7.71,0,0,0,1.92,4.5c4,4.3,8.36,8.26,12.33,12.58a8.4,8.4,0,0,1,2.22,5.11q.18,63.74,0,127.48a7.83,7.83,0,0,1-2.06,4.8c-4.07,4.4-8.44,8.52-12.64,12.8-.75.77-1.73,1.78-1.75,2.71-.17,5.45-.09,10.91-.09,16.12l16.75,3.12c.14,10.47,1.53,20,8.6,27.62,7.54,8.13,17.58,7.81,28,7.43.6,5.87,1.17,11.39,1.75,17h70a5.51,5.51,0,0,0,7.54,0H254.06a5.63,5.63,0,0,0,6.63,0h71.82c.63-5.84,1.23-11.34,1.85-17.06,10.61.53,20.48.65,27.95-7.34,7.1-7.6,8.49-17.13,8.63-27.63l16.55-3.11C389,246,389,246,378.21,235.23a44.9,44.9,0,0,1-5-5.09,9.78,9.78,0,0,1-2.1-5.17q-.16-63.56,0-127.11a8.4,8.4,0,0,1,2.2-5.11c4-4.33,8.25-8.36,12.37-12.55.76-.77,1.84-1.74,1.87-2.65.17-5.56.08-11.13.08-16.26l-16.74-3.21c-.14-10.61-1.59-20.11-8.72-27.71-7.57-8.07-17.67-7.57-27.95-7.37-.6-5.93-1.16-11.46-1.73-17H262.72a5,5,0,0,0-3.44-3.78,6,6,0,0,0-1.7-.24,6,6,0,0,0-1.69.24A5,5,0,0,0,252.45,6H136.15a5,5,0,0,0-4.41-3.78c-.22,0-.44,0-.67,0s-.46,0-.68,0A5,5,0,0,0,126,6ZM53,29.47C47.63,42.12,38.13,50,25.56,55.41,24.91,40.18,31.88,26.53,53,29.47ZM8.21,68.4a2.94,2.94,0,0,1,1.42-2.13c3-.79,6-1.29,9.3-2v21C12.38,82.71,7.43,74.93,8.21,68.4ZM19,258.72,8.79,256.5C5.2,246.31,13.35,242.66,19,237.61Zm6.67,8.92c12.39,5.13,21.81,13.12,27.43,25.94C34.24,295.21,23.76,285.2,25.63,267.64Zm301,43.1H262.45a5.29,5.29,0,0,0-10.14,0H135.9a5.3,5.3,0,0,0-9.87,0H63.17c-.49-3.47-1-6.88-1.48-10.63h44.53c-.06-5.23,3.08-8.26,7.19-9.58,7.77-2.5,15.73-5.79,23.7-6.08,30.68-1.11,61.41-1.45,92.11-1.48,12.92,0,26,.27,38.53,4.14a62.15,62.15,0,0,1,10,4.1c3.35,1.7,5.92,4.22,5.66,8.83h44.64C327.57,303.68,327.12,307.07,326.64,310.74Zm10.18-17.33c5.39-12.59,14.85-20.53,27.16-25.73C365.37,281.23,358.39,296.93,336.82,293.41Zm44.45-37-10.36,2.25V237.43C379.45,242.21,382.44,247.68,381.27,256.46ZM370.84,64.29,381,66.44c3.64,10.07-4.39,13.85-10.14,20.07Zm-6.75-9c-12.36-5.15-21.79-13.12-27.38-25.94C355.63,27.88,366.26,38.08,364.09,55.32ZM342.82,48a144.58,144.58,0,0,0,18.55,12.28c2.69,1.5,3.32,2.87,3.32,5.59q-.1,68.07-.05,136.13c0,18.62-.05,37.25.06,55.87,0,2.47-.67,3.59-3,4.62-14.49,6.28-25.57,16.12-31.41,31.38-13.39,0-26.39,0-39.39,0a4,4,0,0,1-2.89-1.08c-6.24-8.61-15.64-11.39-25.25-12.93A216.48,216.48,0,0,0,231.91,277c-23.24-.41-46.49-.18-69.74-.11-14,0-27.91.53-41.47,4.34-7.29,2-14.11,4.89-18.8,11.35a4.46,4.46,0,0,1-3.18,1.23c-12.25.08-24.5.1-36.75,0a4.2,4.2,0,0,1-3.17-2c-6.62-15.06-18.37-24.44-33.46-30.53V61.75c8.62-3.56,17-7.9,23-15.2,3.86-4.63,6.89-10,10.09-15.11C59.38,30,60,29,62,29.05c12.25.12,24.5,0,36.75.1,1,0,2.48.24,3,.93,6.39,8.86,16,11.64,25.91,13.15A227,227,0,0,0,158,46c23.25.39,46.5.17,69.75.11C242,46,256.2,45.51,270,41.51c6.88-2,13.32-4.86,17.79-11a4.37,4.37,0,0,1,3.09-1.38c13-.09,26-.06,39.29-.06C333.16,36.18,336.65,43.18,342.82,48ZM328.09,22.8H283.6c0,5.74-3.69,8.69-8.18,10.09-7.56,2.36-15.3,5.4-23.05,5.67-30.57,1-61.16,1.42-91.75,1.45-13,0-26.22-.3-38.89-4.2a59.68,59.68,0,0,1-10.28-4.4c-3.09-1.63-5.38-4.12-5-8.44H61.68c.53-3.85,1-7.26,1.5-10.83h64.58a5.64,5.64,0,0,0,6.61,0h120.2a5.7,5.7,0,0,0,6,0h66C327.07,15.65,327.55,19.05,328.09,22.8Z"/></svg>