<svg xmlns="http://www.w3.org/2000/svg" viewBox="0 0 185.93 42.47">
  <rect width="185.93" height="42.47" rx="3.74" fill="#75cc75"/>
  <g fill="#fff">
    <path d="M42.64 16.93h2.09l2.69 7.4 2.73-7.4h2.09l-3.85 10.41h-2z"/>
    <path d="M53.73 16.93h2v10.41h-2z"/>
    <path d="M63.65 18.34l-1.51 1.3a2.15 2.15 0 00-1.61-1.08 1 1 0 00-.66.21.6.6 0 00-.25.47.81.81 0 00.18.5 13.33 13.33 0 001.49 1.34c.78.63 1.25 1 1.41 1.19a4.06 4.06 0 01.88 1.17 2.86 2.86 0 01.26 1.21 2.74 2.74 0 01-.91 2.12 3.36 3.36 0 01-2.37.83 3.62 3.62 0 01-2-.54 4.4 4.4 0 01-1.46-1.71l1.72-1q.77 1.38 1.77 1.38a1.3 1.3 0 00.88-.3.85.85 0 00.36-.68 1.17 1.17 0 00-.27-.71A6.94 6.94 0 0060.38 23a11.78 11.78 0 01-2.25-2.15 2.65 2.65 0 01-.51-1.5 2.45 2.45 0 01.84-1.86 3 3 0 012.1-.77 3.36 3.36 0 011.52.36 5.59 5.59 0 011.57 1.26z"/>
    <path d="M65.63 16.93h2v10.41h-2z"/>
    <path d="M68.89 16.93h5.91v1.95h-2v8.46h-2.01v-8.46h-1.9z"/>
    <path d="M125.52 18.63L124.08 20a4.25 4.25 0 00-3.17-1.4 3.67 3.67 0 00-2.64 1 3.28 3.28 0 00-1.07 2.47 3.39 3.39 0 001.11 2.56 3.79 3.79 0 002.69 1.08 3.53 3.53 0 001.78-.43 3 3 0 001.22-1.36h-3.09v-1.86h5.38v.44a5.26 5.26 0 01-2.62 4.5 5.46 5.46 0 01-2.71.64 6.15 6.15 0 01-3-.7 5.17 5.17 0 01-2.06-2 5.44 5.44 0 01-.76-2.81 5.09 5.09 0 011.4-3.59 5.57 5.57 0 014.33-1.82 6.67 6.67 0 012.61.5 6 6 0 012.04 1.41z"/>
    <path d="M128 16.93h2v10.41h-2z"/>
    <path d="M131.26 16.93h5.91v1.95h-1.95v8.46h-2.06v-8.46h-1.9z"/>
    <path d="M138.56 16.93h2.06v3.93h3.57v-3.93h2.06v10.41h-2.06v-4.56h-3.57v4.56h-2.06z"/>
    <path d="M148.62 16.93h2v6.73a3.26 3.26 0 00.16 1.23 1.19 1.19 0 00.51.58 1.7 1.7 0 00.87.22 1.66 1.66 0 00.93-.25 1.26 1.26 0 00.54-.61 4.38 4.38 0 00.15-1.42v-6.48h2v6.21a8.92 8.92 0 01-.18 2.18 3.43 3.43 0 01-1.88 2 4.11 4.11 0 01-1.56.27 3.8 3.8 0 01-2-.52 3.06 3.06 0 01-1.23-1.3 6.64 6.64 0 01-.37-2.64z"/>
    <path d="M158.22 27.34V16.93h1.68a9.1 9.1 0 012.14.18 2.91 2.91 0 011.53.92 2.39 2.39 0 01.57 1.59 2.33 2.33 0 01-.26 1.08 2.83 2.83 0 01-.84.91 3.38 3.38 0 011.43 1.11 2.8 2.8 0 01.45 1.59 2.88 2.88 0 01-.47 1.59 2.92 2.92 0 01-1.2 1.09 4.87 4.87 0 01-2 .35zm2-8.52V21h.44a1.71 1.71 0 001.11-.3 1 1 0 00.36-.83 1 1 0 00-.35-.78 1.58 1.58 0 00-1-.28zm0 4v2.67h.51a3.23 3.23 0 001.71-.31 1.05 1.05 0 00.44-.91 1.28 1.28 0 00-.52-1.06 2.93 2.93 0 00-1.72-.39z"/>
    <path d="M36.81 13.23a16.75 16.75 0 00-6.1-6.1 16.42 16.42 0 00-8.42-2.25 16.38 16.38 0 00-8.41 2.25 16.68 16.68 0 00-6.1 6.1 16.38 16.38 0 00-2.25 8.41 16.31 16.31 0 003.2 9.86A16.38 16.38 0 0017 37.56a1 1 0 00.87-.16.83.83 0 00.28-.65v-1.18-1.94l-.5.08a6 6 0 01-1.21.08 10.28 10.28 0 01-1.52-.15 3.38 3.38 0 01-1.49-.64 2.78 2.78 0 01-1-1.34l-.22-.5a4.9 4.9 0 00-.65-1.16 2.54 2.54 0 00-1-.83l-.15-.11a1.69 1.69 0 01-.28-.26 1.61 1.61 0 01-.2-.31.18.18 0 01.11-.25 1.36 1.36 0 01.63-.1l.44.07a3.23 3.23 0 011.08.52 3.52 3.52 0 011.11 1.17 3.85 3.85 0 001.21 1.36 2.59 2.59 0 001.43.47 6.27 6.27 0 001.24-.11 4.12 4.12 0 001-.33A3.53 3.53 0 0119.24 29a13.49 13.49 0 01-2.24-.35 8.76 8.76 0 01-2-.85 5.87 5.87 0 01-1.76-1.46A7 7 0 0112 24.05a11.22 11.22 0 01-.44-3.28 6.38 6.38 0 011.72-4.5 5.86 5.86 0 01.15-4.45 3.06 3.06 0 011.88.3 11.26 11.26 0 011.82.84c.39.23.7.43.93.59a15.69 15.69 0 018.38 0l.83-.53a11.78 11.78 0 012-1 2.88 2.88 0 011.77-.24 5.84 5.84 0 01.17 4.46A6.34 6.34 0 0133 20.77a11 11 0 01-.45 3.29 6.73 6.73 0 01-1.16 2.29 6.13 6.13 0 01-1.76 1.45 8.82 8.82 0 01-2.06.85 13.36 13.36 0 01-2.23.39 3.92 3.92 0 011.13 3.1v4.61a.86.86 0 00.27.65 1 1 0 00.87.16 16.42 16.42 0 008.26-6.06 16.31 16.31 0 003.2-9.86 16.58 16.58 0 00-2.26-8.41z"/>
    <path d="M86.54 16.93a5.17 5.17 0 013.81 1.6 5.55 5.55 0 010 7.76 5.43 5.43 0 01-7.71-.05 5.48 5.48 0 011.16-8.58 5.31 5.31 0 012.74-.73zm0 1.94a3.27 3.27 0 00-2.43 1 3.54 3.54 0 00-1 2.56 3.32 3.32 0 001.24 2.73 3.37 3.37 0 002.21.79 3.22 3.22 0 002.4-1 3.48 3.48 0 001-2.52 3.44 3.44 0 00-1-2.51 3.23 3.23 0 00-2.44-1.05z"/>
    <path d="M93.73 17.19h2v6.73a3.26 3.26 0 00.16 1.23 1.18 1.18 0 00.5.58 1.51 1.51 0 00.85.22 1.68 1.68 0 00.9-.24 1.32 1.32 0 00.52-.61 4.46 4.46 0 00.15-1.42v-6.49h2v6.21a8.87 8.87 0 01-.18 2.18 2.94 2.94 0 01-.68 1.17 3 3 0 01-1.15.84 4.08 4.08 0 01-3.48-.24A3.06 3.06 0 0194.1 26a6.83 6.83 0 01-.37-2.64z"/>
    <path d="M103.22 17.19h2.1a6.85 6.85 0 012.46.31 2.48 2.48 0 011.18 1 3.2 3.2 0 01.44 1.69 2.87 2.87 0 01-.49 1.72 3 3 0 01-1.48 1l2.46 4.63h-2.16l-2.34-4.41h-.19v4.47h-2zm2 4.07h.62a2.4 2.4 0 001.31-.25.94.94 0 00.35-.82 1 1 0 00-.65-1 3.64 3.64 0 00-1.08-.11h-.55z"/>
  </g>
</svg>