<svg id="Layer_1" data-name="Layer 1" xmlns="http://www.w3.org/2000/svg" viewBox="0 0 185.93 42.47"><defs><style>.cls-1{fill:#e1a959;}.cls-2{fill:#fefefe;}.cls-3{fill:#fe5f5f;}.cls-4{fill:#e0a859;}.cls-5{fill:#fff;}</style></defs><title>kofi</title><path class="cls-1" d="M182.35,42.47H3.7A3.6,3.6,0,0,1,.06,38.92V3.55A3.6,3.6,0,0,1,3.7,0H182.35A3.6,3.6,0,0,1,186,3.55V38.92a3.6,3.6,0,0,1-3.64,3.55"/><path class="cls-2" d="M19.65,9.85H30.92a8.09,8.09,0,0,1,8.29,7.75c.38,5.31-3,9.13-8.3,9.31-.81,0-1,.28-1.16,1.06-.59,3.6-1.83,4.63-5.44,4.64H9.8c-2.61,0-4.13-1.46-4.14-4.06,0-5.64,0-11.27,0-16.91,0-1.43.42-1.8,1.88-1.8Z"/><path class="cls-3" d="M10.85,18.76a3.16,3.16,0,0,1,1.77-3.15,3.73,3.73,0,0,1,4.16.49,1.26,1.26,0,0,0,2,0,3.52,3.52,0,0,1,4.43-.27,3.78,3.78,0,0,1,1.37,4.26,5.44,5.44,0,0,1-1.2,2.18c-1.55,1.78-3.2,3.46-4.87,5.12-.41.4-.73.72-1.27.16-1.69-1.76-3.51-3.39-5.08-5.25A5.45,5.45,0,0,1,10.85,18.76Z"/><path class="cls-4" d="M29.87,18.46c0-1.16,0-2.31,0-3.47,0-.52.1-.77.71-.82,2.68-.2,4.52,1.39,4.55,4,0,2.89-1.74,4.71-4.44,4.6-.61,0-.85-.2-.83-.83C29.89,20.77,29.87,19.61,29.87,18.46Z"/><path class="cls-5" d="M48.31,18.45,47,19.61a1.86,1.86,0,0,0-1.41-1,.85.85,0,0,0-.58.19.55.55,0,0,0-.22.42.74.74,0,0,0,.16.44,12.2,12.2,0,0,0,1.3,1.2c.68.57,1.09.93,1.24,1.08a3.64,3.64,0,0,1,.76,1,2.48,2.48,0,0,1,.23,1.09,2.51,2.51,0,0,1-.79,1.9,2.9,2.9,0,0,1-2.08.75,3.11,3.11,0,0,1-1.73-.49,3.83,3.83,0,0,1-1.27-1.54l1.49-.9c.45.82,1,1.24,1.55,1.24a1.11,1.11,0,0,0,.77-.27.79.79,0,0,0,.31-.62,1,1,0,0,0-.23-.63,7,7,0,0,0-1-1,10.83,10.83,0,0,1-2-1.92A2.48,2.48,0,0,1,43,19.31a2.2,2.2,0,0,1,.74-1.67A2.56,2.56,0,0,1,45.6,17a3,3,0,0,1,1.34.32A5.08,5.08,0,0,1,48.31,18.45Z"/><path class="cls-5" d="M50.1,17.18h1.79v6A3.25,3.25,0,0,0,52,24.33a1.11,1.11,0,0,0,.45.51,1.41,1.41,0,0,0,.76.2,1.53,1.53,0,0,0,.81-.22,1.13,1.13,0,0,0,.47-.55A3.94,3.94,0,0,0,54.64,23V17.18h1.78v5.57a8.61,8.61,0,0,1-.15,2,2.85,2.85,0,0,1-.61,1.05,2.76,2.76,0,0,1-1,.75,3.55,3.55,0,0,1-1.36.25,3.29,3.29,0,0,1-1.77-.47,2.66,2.66,0,0,1-1.07-1.17,6.07,6.07,0,0,1-.33-2.37Z"/><path class="cls-5" d="M58.48,17.18h1.89a6.09,6.09,0,0,1,2.2.29,2.21,2.21,0,0,1,1.07.91A2.83,2.83,0,0,1,64,19.89a2.54,2.54,0,0,1-.51,1.63,2.68,2.68,0,0,1-1.39.9,7.76,7.76,0,0,1-1.87.15v3.95H58.48Zm1.78,3.65h.56a3.21,3.21,0,0,0,.93-.09.87.87,0,0,0,.41-.32.9.9,0,0,0,.15-.53.86.86,0,0,0-.42-.79,2.43,2.43,0,0,0-1.13-.18h-.5Z"/><path class="cls-5" d="M65.76,17.18h1.89a6.09,6.09,0,0,1,2.2.29,2.21,2.21,0,0,1,1.07.91,2.83,2.83,0,0,1,.39,1.51,2.54,2.54,0,0,1-.51,1.63,2.65,2.65,0,0,1-1.39.9,7.76,7.76,0,0,1-1.87.15v3.95H65.76Zm1.78,3.65h.56a3.21,3.21,0,0,0,.93-.09.87.87,0,0,0,.41-.32.9.9,0,0,0,.15-.53.86.86,0,0,0-.42-.79A2.43,2.43,0,0,0,68,18.92h-.5Z"/><path class="cls-5" d="M77.46,17a4.64,4.64,0,0,1,3.4,1.43,5,5,0,0,1,0,7,4.85,4.85,0,0,1-6.9,0,5,5,0,0,1-.75-5.91A4.89,4.89,0,0,1,77.46,17Zm0,1.74a2.93,2.93,0,0,0-2.18.9,3.12,3.12,0,0,0-.88,2.29,3,3,0,0,0,1.11,2.45,3,3,0,0,0,2,.71,2.89,2.89,0,0,0,2.15-.92,3.08,3.08,0,0,0,.89-2.25,3.16,3.16,0,0,0-.89-2.26A3,3,0,0,0,77.44,18.69Z"/><path class="cls-5" d="M84.09,17.18H86a6.26,6.26,0,0,1,2.2.28,2.24,2.24,0,0,1,1.06.92,2.75,2.75,0,0,1,.4,1.51,2.6,2.6,0,0,1-.44,1.54,2.67,2.67,0,0,1-1.33.94l2.21,4.15H88.13L86,22.57h-.17v3.95H84.09Zm1.77,3.65h.56a2.16,2.16,0,0,0,1.17-.22.84.84,0,0,0,.32-.74.88.88,0,0,0-.58-.85,3.14,3.14,0,0,0-1-.1h-.49Z"/><path class="cls-5" d="M90.59,17.18h5.16v1.76h-1.7v7.58H92.24V18.94H90.59Z"/><path class="cls-5" d="M101.51,17.18h1.73l2.16,6.52,2.19-6.52h1.73l1.57,9.34h-1.72l-1-5.9-2,5.9h-1.56l-2-5.9-1,5.9H99.89Z"/><path class="cls-5" d="M112.31,17.18h5.1v1.74h-3.34v1.69h3.34v1.71h-3.34v2.45h3.34v1.75h-5.1Z"/><path class="cls-5" d="M127.11,17a4.66,4.66,0,0,1,3.41,1.43,4.79,4.79,0,0,1,1.42,3.5,4.71,4.71,0,0,1-1.41,3.46,4.85,4.85,0,0,1-6.9,0,4.9,4.9,0,0,1,1-7.69A4.76,4.76,0,0,1,127.11,17Zm0,1.74a2.94,2.94,0,0,0-2.18.9,3.12,3.12,0,0,0-.88,2.29,3,3,0,0,0,1.11,2.45,3,3,0,0,0,2,.71,2.89,2.89,0,0,0,2.15-.92,3.08,3.08,0,0,0,.89-2.25,3.12,3.12,0,0,0-.89-2.26A3,3,0,0,0,127.09,18.69Z"/><path class="cls-5" d="M133.62,17.18h1.71l4,6.15V17.18h1.78v9.34h-1.71l-4-6.12v6.12h-1.78Z"/><path class="cls-5" d="M146.88,17.18h1.8V20.4l2.54-3.22h2.13l-3.26,4.17,3.58,5.17h-2.11l-2.88-4.15v4.15h-1.8Z"/><path class="cls-5" d="M159.34,17a4.66,4.66,0,0,1,3.41,1.43,4.8,4.8,0,0,1,1.43,3.5,4.71,4.71,0,0,1-1.41,3.46,4.87,4.87,0,0,1-6.91,0,4.81,4.81,0,0,1-1.39-3.45,4.86,4.86,0,0,1,.65-2.46,4.68,4.68,0,0,1,1.78-1.78A4.76,4.76,0,0,1,159.34,17Zm0,1.74a2.94,2.94,0,0,0-2.18.9,3.12,3.12,0,0,0-.88,2.29,3,3,0,0,0,1.11,2.45,3.06,3.06,0,0,0,2,.71,2.9,2.9,0,0,0,2.16-.92,3.29,3.29,0,0,0,0-4.51A2.94,2.94,0,0,0,159.32,18.69Z"/><path class="cls-5" d="M165.9,22.27h3.23v1.62H165.9Z"/><path class="cls-5" d="M171.34,17.18H176v1.74H173.1v1.69H176v1.71H173.1v4.2h-1.76Z"/><path class="cls-5" d="M177.42,17.18h1.77v9.34h-1.77Z"/></svg>