<svg id="Layer_1" data-name="Layer 1" xmlns="http://www.w3.org/2000/svg" viewBox="0 0 185.93 42.47"><defs><style>.cls-1{fill:#8b9dfe;}.cls-2{fill:#fff;}.cls-3{fill:#fdfdfe;}.cls-4{fill:#a0affe;}.cls-5{fill:#8b9cfd;}</style></defs><title>discord</title><path class="cls-1" d="M182.29,42.43H3.64A3.59,3.59,0,0,1,0,38.89V3.58A3.59,3.59,0,0,1,3.64,0H182.29a3.59,3.59,0,0,1,3.64,3.54V38.89a3.59,3.59,0,0,1-3.64,3.54"/><path class="cls-2" d="M46.12,16.52h2v6.91a7.16,7.16,0,0,1-.26,2.31A2.21,2.21,0,0,1,47,26.8a2.58,2.58,0,0,1-1.44.39,3.63,3.63,0,0,1-2.93-1.5L44,24.35a3.21,3.21,0,0,0,.8.72,1.41,1.41,0,0,0,.65.19A.5.5,0,0,0,46,25a2.73,2.73,0,0,0,.16-1.19Z"/><path class="cls-2" d="M55.4,16.26a5.17,5.17,0,0,1,3.81,1.6,5.55,5.55,0,0,1,0,7.76,5.46,5.46,0,0,1-7.71-.05A5.39,5.39,0,0,1,50,21.72,5.46,5.46,0,0,1,50.69,19a5.4,5.4,0,0,1,2-2A5.31,5.31,0,0,1,55.4,16.26Zm0,1.94a3.27,3.27,0,0,0-2.43,1,3.52,3.52,0,0,0-1,2.56,3.32,3.32,0,0,0,1.24,2.73,3.42,3.42,0,0,0,2.21.79,3.22,3.22,0,0,0,2.4-1,3.48,3.48,0,0,0,1-2.52,3.44,3.44,0,0,0-1-2.51A3.23,3.23,0,0,0,55.38,18.2Z"/><path class="cls-2" d="M62.52,16.52h2V26.93h-2Z"/><path class="cls-2" d="M66.73,16.52h1.9l4.46,6.85V16.52h2V26.93H73.16L68.71,20.1v6.83h-2Z"/><path class="cls-2" d="M86.42,16.26a5.15,5.15,0,0,1,3.8,1.6,5.3,5.3,0,0,1,1.59,3.9,5.27,5.27,0,0,1-1.57,3.86,5.44,5.44,0,0,1-7.7-.05A5.39,5.39,0,0,1,81,21.72,5.46,5.46,0,0,1,81.71,19a5.4,5.4,0,0,1,2-2A5.31,5.31,0,0,1,86.42,16.26Zm0,1.94a3.27,3.27,0,0,0-2.43,1,3.49,3.49,0,0,0-1,2.56,3.33,3.33,0,0,0,1.25,2.73,3.42,3.42,0,0,0,2.21.79,3.22,3.22,0,0,0,2.4-1,3.48,3.48,0,0,0,1-2.52,3.44,3.44,0,0,0-1-2.51A3.23,3.23,0,0,0,86.4,18.2Z"/><path class="cls-2" d="M93.61,16.52h2v6.73a3.26,3.26,0,0,0,.16,1.23,1.17,1.17,0,0,0,.5.58,1.59,1.59,0,0,0,.84.22A1.69,1.69,0,0,0,98,25a1.29,1.29,0,0,0,.52-.62A4.35,4.35,0,0,0,98.68,23V16.52h2v6.21a9.06,9.06,0,0,1-.17,2.18,3.14,3.14,0,0,1-.68,1.17,3,3,0,0,1-1.15.84,3.91,3.91,0,0,1-1.51.27,3.66,3.66,0,0,1-2-.52,3,3,0,0,1-1.2-1.3,6.87,6.87,0,0,1-.36-2.64Z"/><path class="cls-2" d="M103.1,16.52h2.1a6.85,6.85,0,0,1,2.46.31,2.48,2.48,0,0,1,1.18,1,3.2,3.2,0,0,1,.44,1.69,2.87,2.87,0,0,1-.49,1.72,3,3,0,0,1-1.48,1l2.46,4.63h-2.16l-2.35-4.41h-.18v4.41h-2Zm2,4.07h.62a2.42,2.42,0,0,0,1.31-.25,1,1,0,0,0,.35-.82,1.08,1.08,0,0,0-.17-.6,1,1,0,0,0-.48-.36,3.64,3.64,0,0,0-1.08-.11h-.55Z"/><path class="cls-2" d="M115.44,16.52h2.35a7.8,7.8,0,0,1,3.37.56A4.45,4.45,0,0,1,123,18.91a5.9,5.9,0,0,1,.72,3,6.07,6.07,0,0,1-.4,2.21,4.65,4.65,0,0,1-1.11,1.68,3.91,3.91,0,0,1-1.52.92,11,11,0,0,1-2.85.25h-2.38Zm2,1.91V25h.92a4.6,4.6,0,0,0,2-.31,2.37,2.37,0,0,0,1-1.05,3.86,3.86,0,0,0,.39-1.82,3.45,3.45,0,0,0-.93-2.57,3.69,3.69,0,0,0-2.68-.82Z"/><path class="cls-2" d="M125.44,16.52h2V26.93h-2Z"/><path class="cls-2" d="M135.11,17.93l-1.47,1.3a2.07,2.07,0,0,0-1.57-1.08,1,1,0,0,0-.64.21.6.6,0,0,0-.25.47.81.81,0,0,0,.18.5,13.32,13.32,0,0,0,1.45,1.34c.76.63,1.22,1,1.38,1.19A4.29,4.29,0,0,1,135,23a2.85,2.85,0,0,1,.25,1.21,2.78,2.78,0,0,1-.88,2.12,3.21,3.21,0,0,1-2.31.83,3.47,3.47,0,0,1-1.94-.54,4.41,4.41,0,0,1-1.42-1.71l1.67-1c.5.92,1.08,1.38,1.73,1.38A1.27,1.27,0,0,0,133,25a.87.87,0,0,0,.35-.68,1.17,1.17,0,0,0-.27-.71,7,7,0,0,0-1.15-1.08,11.39,11.39,0,0,1-2.2-2.15,2.71,2.71,0,0,1-.5-1.5,2.48,2.48,0,0,1,.83-1.86,2.85,2.85,0,0,1,2-.77,3.2,3.2,0,0,1,1.48.36A5.51,5.51,0,0,1,135.11,17.93Z"/><path class="cls-2" d="M146.76,18.35l-1.39,1.32a4.29,4.29,0,0,0-3.18-1.5,3.5,3.5,0,0,0-3.54,3.54,3.73,3.73,0,0,0,.45,1.85,3.26,3.26,0,0,0,1.28,1.27,3.7,3.7,0,0,0,1.84.46A3.88,3.88,0,0,0,143.8,25a6,6,0,0,0,1.57-1.17l1.34,1.4a7.31,7.31,0,0,1-2.18,1.56,5.92,5.92,0,0,1-2.34.43,5.39,5.39,0,0,1-4-1.54,5.31,5.31,0,0,1-1.54-3.94,5.41,5.41,0,0,1,.7-2.77,5.2,5.2,0,0,1,2-2,5.68,5.68,0,0,1,2.83-.73,6,6,0,0,1,4.54,2.09Z"/><path class="cls-2" d="M153.41,16.26a5.16,5.16,0,0,1,3.8,1.6,5.3,5.3,0,0,1,1.59,3.9,5.27,5.27,0,0,1-1.57,3.86,5.44,5.44,0,0,1-7.7-.05,5.46,5.46,0,0,1,3.88-9.31Zm0,1.94a3.24,3.24,0,0,0-2.43,1,3.49,3.49,0,0,0-1,2.56,3.32,3.32,0,0,0,1.24,2.73,3.42,3.42,0,0,0,2.21.79,3.22,3.22,0,0,0,2.4-1,3.66,3.66,0,0,0,0-5A3.26,3.26,0,0,0,153.39,18.2Z"/><path class="cls-2" d="M160.8,16.52h2.1a6.85,6.85,0,0,1,2.46.31,2.48,2.48,0,0,1,1.18,1,3.11,3.11,0,0,1,.44,1.69,2.87,2.87,0,0,1-.49,1.72,3,3,0,0,1-1.48,1l2.47,4.63h-2.17L163,22.52h-.18v4.41h-2Zm2,4.07h.62a2.38,2.38,0,0,0,1.3-.25.93.93,0,0,0,.36-.82,1,1,0,0,0-.18-.6,1,1,0,0,0-.47-.36,3.73,3.73,0,0,0-1.09-.11h-.54Z"/><path class="cls-2" d="M169.09,16.52h2.35a7.83,7.83,0,0,1,3.37.56,4.45,4.45,0,0,1,1.82,1.83,6,6,0,0,1,.71,3,5.87,5.87,0,0,1-.4,2.21,4.51,4.51,0,0,1-1.1,1.68,3.94,3.94,0,0,1-1.53.92,10.83,10.83,0,0,1-2.84.25h-2.38Zm2,1.91V25H172a4.6,4.6,0,0,0,2-.31,2.37,2.37,0,0,0,1-1.05,3.86,3.86,0,0,0,.39-1.82,3.45,3.45,0,0,0-.93-2.57,3.71,3.71,0,0,0-2.68-.82Z"/><path class="cls-3" d="M32.83,12.91a13.57,13.57,0,0,0-5.38-2.78c-.28-.07-.78,0-.73-.48s.53-.46.9-.41a14,14,0,0,1,6.75,2.86c1,.78,1.32,2.1,1.8,3.25a43.28,43.28,0,0,1,2.86,12A2.71,2.71,0,0,1,37.83,30a15,15,0,0,1-8,3.24c-.46,0-1.7-1.09-1.67-1.52,0-.27.27-.26.45-.33a15.81,15.81,0,0,0,5.13-3.27,1,1,0,0,0,.15-.19,25.61,25.61,0,0,1-23,0,11.57,11.57,0,0,0,3,2.37,18.72,18.72,0,0,0,2.35,1.12c.48.19.39.33.18.69a2,2,0,0,1-2.36,1.05,15.23,15.23,0,0,1-7.6-3.52,2,2,0,0,1-.79-1.88A44.73,44.73,0,0,1,7.91,17c.25-.7.6-1.36.81-2.07.81-2.76,3-4,5.46-4.88a17.09,17.09,0,0,1,2.72-.74,4.75,4.75,0,0,1,.53,0,.5.5,0,0,1,.59.47c.06.35-.27.3-.46.35a15,15,0,0,0-5.76,2.9,1.36,1.36,0,0,1-.28.11l.15.21,2.06-.92a20.93,20.93,0,0,1,18.1.37c.27.14.55.25.83.37S32.91,13.1,32.83,12.91Z"/><path class="cls-4" d="M32.83,12.91c.13.09.38.15.23.33s-.28,0-.4-.16Z"/><path class="cls-5" d="M24.39,23.13a3.43,3.43,0,0,1,.48-1.82,2.38,2.38,0,0,1,4.27-.15,4,4,0,0,1-.3,4.56,2.32,2.32,0,0,1-3.75-.21A3.68,3.68,0,0,1,24.39,23.13Z"/><path class="cls-5" d="M20.31,23.24a3.4,3.4,0,0,1-.75,2.36,2.33,2.33,0,0,1-3.6.21,4,4,0,0,1-.2-4.94A2.33,2.33,0,0,1,18.35,20a3,3,0,0,1,1.91,2.47A4.85,4.85,0,0,1,20.31,23.24Z"/></svg>