<svg id="Layer_1" data-name="Layer 1" xmlns="http://www.w3.org/2000/svg" viewBox="0 0 185.93 42.47"><defs><style>.cls-1{fill:#f96854;}.cls-2{fill:#fff;}.cls-3{fill:#fffcfb;}.cls-4{fill:#002b49;}</style></defs><title>patreon</title><path class="cls-1" d="M182.29,42.43H3.64A3.6,3.6,0,0,1,0,38.88V3.59A3.6,3.6,0,0,1,3.64,0H182.29a3.6,3.6,0,0,1,3.64,3.55V38.88a3.6,3.6,0,0,1-3.64,3.55"/><path class="cls-2" d="M42.47,26.9V16.49h1.64a8.63,8.63,0,0,1,2.08.18,2.86,2.86,0,0,1,1.49.92,2.42,2.42,0,0,1,.55,1.59A2.26,2.26,0,0,1,48,20.26a2.76,2.76,0,0,1-.82.91,3.26,3.26,0,0,1,1.39,1.11A2.87,2.87,0,0,1,49,23.87a3,3,0,0,1-1.62,2.68,4.5,4.5,0,0,1-2,.35Zm2-8.52v2.19h.44a1.61,1.61,0,0,0,1.07-.3,1,1,0,0,0,.36-.83,1,1,0,0,0-.34-.77,1.53,1.53,0,0,0-1-.29Zm0,4V25H45a3,3,0,0,0,1.66-.31,1,1,0,0,0,.43-.9,1.27,1.27,0,0,0-.5-1.07,2.79,2.79,0,0,0-1.68-.39Z"/><path class="cls-2" d="M50.89,16.49h5.68v1.94H52.86v1.88h3.71v1.91H52.86V25h3.71V26.9H50.89Z"/><path class="cls-2" d="M68,18.32l-1.38,1.32a4.3,4.3,0,0,0-3.19-1.49,3.48,3.48,0,0,0-3.53,3.53,3.73,3.73,0,0,0,.45,1.85,3.26,3.26,0,0,0,1.28,1.27,3.7,3.7,0,0,0,1.84.46A3.91,3.91,0,0,0,65,24.94a6,6,0,0,0,1.57-1.17L68,25.17a7.31,7.31,0,0,1-2.18,1.56,5.92,5.92,0,0,1-2.34.44,5.43,5.43,0,0,1-4-1.54,5.36,5.36,0,0,1-1.55-3.95,5.41,5.41,0,0,1,.71-2.77,5.27,5.27,0,0,1,2-1.95,5.68,5.68,0,0,1,2.83-.73,6,6,0,0,1,2.48.54A5.87,5.87,0,0,1,68,18.32Z"/><path class="cls-2" d="M74.65,16.23a5.16,5.16,0,0,1,3.8,1.6,5.55,5.55,0,0,1,0,7.76,5.44,5.44,0,0,1-7.71,0A5.49,5.49,0,0,1,71.92,17,5.32,5.32,0,0,1,74.65,16.23Zm0,1.94a3.27,3.27,0,0,0-2.43,1,3.54,3.54,0,0,0-1,2.56,3.32,3.32,0,0,0,1.24,2.73,3.37,3.37,0,0,0,2.21.79,3.22,3.22,0,0,0,2.4-1,3.69,3.69,0,0,0,0-5A3.26,3.26,0,0,0,74.62,18.17Z"/><path class="cls-2" d="M82.92,16.49h1.93l2.41,7.26,2.44-7.26h1.93L93.38,26.9H91.46l-1.12-6.57L88.13,26.9H86.38l-2.19-6.57L83.05,26.9H81.11Z"/><path class="cls-2" d="M95,16.49h5.69v1.94H96.93v1.88h3.72v1.91H96.93V25h3.72V26.9H95Z"/><path class="cls-2" d="M109.73,16.49h2l4,10.41h-2.06l-.82-2.14h-4.25l-.85,2.14h-2.06Zm1,2.76-1.4,3.58h2.79Z"/><path class="cls-2" d="M121.33,16.49h2.1a6.92,6.92,0,0,1,2.46.31,2.51,2.51,0,0,1,1.19,1,3.17,3.17,0,0,1,.44,1.69,2.87,2.87,0,0,1-.57,1.82,3,3,0,0,1-1.55,1,8.86,8.86,0,0,1-2.09.16V26.9h-2Zm2,4.07h.63a3.05,3.05,0,0,0,1-.11.86.86,0,0,0,.46-.35,1,1,0,0,0,.17-.59,1,1,0,0,0-.47-.88,2.64,2.64,0,0,0-1.26-.21h-.56Z"/><path class="cls-2" d="M132.63,16.49h2l4,10.41h-2.06l-.82-2.14h-4.25l-.84,2.14h-2.06Zm1,2.76-1.4,3.58H135Z"/><path class="cls-2" d="M139.16,16.49h5.75v2H143V26.9h-2V18.44h-1.84Z"/><path class="cls-2" d="M146.41,16.49h2.1a6.75,6.75,0,0,1,2.45.31,2.48,2.48,0,0,1,1.18,1,3.11,3.11,0,0,1,.45,1.69,2.87,2.87,0,0,1-.5,1.72,2.9,2.9,0,0,1-1.48,1l2.47,4.63h-2.17l-2.34-4.41h-.18V26.9h-2Zm2,4.07H149a2.38,2.38,0,0,0,1.3-.25.92.92,0,0,0,.36-.82,1,1,0,0,0-.18-.6,1.06,1.06,0,0,0-.47-.36,3.73,3.73,0,0,0-1.09-.11h-.54Z"/><path class="cls-2" d="M159.6,16.23a5.16,5.16,0,0,1,3.8,1.6,5.32,5.32,0,0,1,1.59,3.9,5.25,5.25,0,0,1-1.57,3.86,5.43,5.43,0,0,1-7.7,0,5.58,5.58,0,0,1-.83-6.6,5.44,5.44,0,0,1,4.71-2.72Zm0,1.94a3.24,3.24,0,0,0-2.43,1,3.51,3.51,0,0,0-1,2.56,3.43,3.43,0,0,0,3.45,3.52,3.26,3.26,0,0,0,2.41-1,3.48,3.48,0,0,0,1-2.52,3.44,3.44,0,0,0-1-2.51A3.26,3.26,0,0,0,159.58,18.17Z"/><path class="cls-2" d="M166.87,16.49h1.9l4.46,6.85V16.49h2V26.9H173.3l-4.45-6.83V26.9h-2Z"/><ellipse class="cls-3" cx="26.14" cy="16.8" rx="10.7" ry="10.1"/><rect class="cls-4" x="5.87" y="6.7" width="5.71" height="29.08"/></svg>