<svg id="Layer_1" data-name="Layer 1" xmlns="http://www.w3.org/2000/svg" viewBox="0 0 666.41 62.12"><defs><style>.cls-1{fill:#665a44;}.cls-1,.cls-6{stroke:#efbe52;stroke-miterlimit:10;stroke-width:2px;}.cls-2{fill:#994242;}.cls-3{fill:#c99d45;}.cls-4{fill:#823b3b;}.cls-5{fill:#aa4646;}.cls-6{fill:none;}.cls-7{fill:#fff;}</style></defs><title>banner</title><line class="cls-1" x1="25.06" y1="45.59" x2="642.71" y2="45.59"/><polygon class="cls-2" points="666.41 10.88 656.06 10.88 653.71 10.88 618.41 10.88 618.41 60.71 653.71 60.71 666.41 60.71 653.71 35.79 666.41 10.88"/><polygon class="cls-3" points="635.56 53.96 662.87 53.78 663.89 55.78 630.35 55.78 635.56 53.96"/><polygon class="cls-4" points="642.59 51.82 642.59 51.82 618.53 60.71 618.53 50.41 642.59 51.82"/><polygon class="cls-2" points="12.71 12.29 10.35 12.29 0 12.29 12.71 37.2 0 62.12 12.71 62.12 48 62.12 48 12.29 12.71 12.29"/><rect class="cls-5" x="24.94" width="617.88" height="51.82"/><polygon class="cls-3" points="38.56 56.15 3.06 56.15 2.04 58.15 40.32 58.15 38.56 56.15"/><polygon class="cls-4" points="24.94 51.82 27.85 53.12 48 62.12 48 51.82 24.94 51.82"/><line class="cls-6" x1="24.94" y1="6.47" x2="642.82" y2="6.47"/><polygon class="cls-3" points="24.94 17.59 2.7 17.59 1.68 15.59 24.94 15.59 24.94 17.59"/><polygon class="cls-3" points="642.82 17.65 662.87 17.65 663.89 15.65 642.82 15.65 642.82 17.65"/><path class="cls-7" d="M48.27,17.68h.14a3.93,3.93,0,0,1,.77.1l.45.14L50,18a19.2,19.2,0,0,0,2,.28l2.05.17c.49,0,1,0,1.5,0a38.51,38.51,0,0,0,4.85-.35L61,18.1l.56-.11a4.73,4.73,0,0,1,.7-.07,1.61,1.61,0,0,1,.35,0,6.38,6.38,0,0,1-.52.84l-.6.73-.21.24-.24.32-.59.76a4.25,4.25,0,0,1-1.15,1.08l-.42,0-.42,0h-.91l-1,0h-2l-.73,0-.77,0h-.45a6.19,6.19,0,0,0-1.05.07,25.85,25.85,0,0,0-.17,2.72,9.23,9.23,0,0,0,.21,2.13,3.29,3.29,0,0,0,.83-.32l.81-.34a2.88,2.88,0,0,1,.83-.11,4.22,4.22,0,0,1,.6,0l.76.13.81.18a6.92,6.92,0,0,0,1.53.21,1.68,1.68,0,0,0,1.08-.28l.25-.28q.14-.21.24-.21a.76.76,0,0,1,.21,0q.42,0,.42.45a3.28,3.28,0,0,1-.35,1.19c-.56,1.18-1.06,1.87-1.5,2.05a4.67,4.67,0,0,1-2,.35,15.2,15.2,0,0,1-2.2-.24l-.42-.07L53,29.47a3.75,3.75,0,0,0-.45,0,1.75,1.75,0,0,0-.49.07c-.44.17-.67.86-.7,2.1,0,.39,0,.92,0,1.57l0,.69v.77a4.62,4.62,0,0,1-.31,1.61,8.05,8.05,0,0,0-.39.9A6.35,6.35,0,0,0,52,37l.59-.1.6-.07c.21,0,.43,0,.66,0a9.2,9.2,0,0,1,1.5.14l1,.21.94.18.76.1.88,0h.17a2,2,0,0,0,1.29-.32,1.55,1.55,0,0,0,.35-.42l.28-.59a2.14,2.14,0,0,1,.66-.94l.35,0,.31,0a.67.67,0,0,1,.53.66v.07a20.12,20.12,0,0,1-1.47,2.76,19.1,19.1,0,0,1-1.57,2.54v0a.58.58,0,0,1-.14.07l-.38.07h-.42a36.82,36.82,0,0,1-3.8-.6l-1.88-.34-1.85-.25a10.91,10.91,0,0,0-1.29-.07,11.85,11.85,0,0,0-1.33.07,4.33,4.33,0,0,0-.73.14l-1.08.25a6.32,6.32,0,0,1-1.36.24c-.14,0-.24,0-.28-.07a.41.41,0,0,1-.21-.35.82.82,0,0,1,.17-.45l.39-.39.14-.1.14-.11a1.6,1.6,0,0,0,.41-.41,1.53,1.53,0,0,0,.35-.53,3.06,3.06,0,0,0,.14-1.08c0-.18,0-.38,0-.59l0-.94,0-.39,0-.31c-.07-.81-.1-1.8-.1-3,0-.58,0-1.2,0-1.88l.07-2.48.07-2.47,0-.56v-.84a2.25,2.25,0,0,1,.14-.87,2.6,2.6,0,0,1,.77-.94l.48-.42.42-.45a1.63,1.63,0,0,0-.59-.11,2,2,0,0,0-.63.11,5.62,5.62,0,0,0-1,.55,2.81,2.81,0,0,1-1.29.53.42.42,0,0,1-.31-.11.56.56,0,0,1-.25-.42.65.65,0,0,1,.18-.41l1.5-1.57,1.5-1.57.14-.14.17-.18A.83.83,0,0,1,48.27,17.68Z" transform="translate(-2.65 -5)"/><path class="cls-7" d="M68.92,41.54a4.38,4.38,0,0,1-1.12-.23,3.31,3.31,0,0,1-1-.61,2.45,2.45,0,0,1-1-1.92V30a.93.93,0,0,1-.8-.63l-.49.28L63.93,29l.1-.18,0,0,.07-.07.07,0L65,28c.27-.27.65-.6,1.11-1a6.28,6.28,0,0,0,.94-.77l.14-.1.21-.21v-.42c1,1.35,1.79,2,2.51,2A3.53,3.53,0,0,0,71,27v.42a1.39,1.39,0,0,0-.07.48,3.8,3.8,0,0,1-.73,1.31,2.85,2.85,0,0,1-.94.72v7.43a1.24,1.24,0,0,0,.17.55c.21.45.69.67,1.43.67a2.5,2.5,0,0,0,.91-.21l.14.24ZM68,25.18H67.7v0h-.35l-.07,0A1.5,1.5,0,0,1,65.64,24l-.56.28-.45-.77a2.21,2.21,0,0,1,.59-.44l.59-.29-.07.07.3-.23.37-.3.57-.42.72-.52a2.43,2.43,0,0,0,1.88,1.33,1.1,1.1,0,0,1,.3-.09,1,1,0,0,0,.29-.09h0l.07-.07h0l0,0h0l0,0h.24v.32a1.88,1.88,0,0,1-.23.92,2.59,2.59,0,0,1-.59.77,3,3,0,0,1-.84.54A2.31,2.31,0,0,1,68,25.18Z" transform="translate(-2.65 -5)"/><path class="cls-7" d="M85.8,41.61a11.89,11.89,0,0,1-2.09,1.78.33.33,0,0,0-.14.1l-1.36,1a4.16,4.16,0,0,0-.74.61l-.85.8c-.32.3-.64.62-1,.94a.9.9,0,0,1-.3-.17,1.13,1.13,0,0,0-.22-.21h0l-.31-.23a2.34,2.34,0,0,1-.35-.29h0a.24.24,0,0,0-.12-.09l-.23-.12a3.48,3.48,0,0,0-2.19-.6,5.65,5.65,0,0,0-2.83.95,4.81,4.81,0,0,1,2.27-2.76,6.21,6.21,0,0,1,3.14-.84,5.31,5.31,0,0,1,3.1.77c.84-.77,1.26-1.37,1.26-1.81,0-.28-.26-.68-.77-1.19a2.52,2.52,0,0,1-.91-1.57,11.38,11.38,0,0,0-3.66,3c-1.09-1.42-2.18-2.13-3.28-2.13a.45.45,0,0,0-.21,0,5.32,5.32,0,0,0-1.15.25,1.3,1.3,0,0,1-.38,0,2.33,2.33,0,0,1,.56-1.32,4.4,4.4,0,0,1,.49-.6A1.07,1.07,0,0,1,74,37.6v-9a.83.83,0,0,1-.07-.21.58.58,0,0,1,0-.14s0-.1-.06-.17a3.21,3.21,0,0,0-.24-.56V27.1a2.21,2.21,0,0,0,1.29.35l.11,0h.17a11.93,11.93,0,0,0,5.09-1.29l.7-.35c.32-.16.7-.37,1.12-.63.81,1.38,1.76,2.06,2.86,2.06H85l.68-.33a6.75,6.75,0,0,0,.68-.37,3.43,3.43,0,0,1-1.6,2.76v7.15a3.46,3.46,0,0,0,.83,2.06l0,.07h0l.18.14,0,.07h0a2.49,2.49,0,0,1,.59,1.36A2.33,2.33,0,0,1,85.8,41.61Zm-4.64-4.36V29.68a2.09,2.09,0,0,1-1.68-1,2.33,2.33,0,0,1-.15-.23,2.85,2.85,0,0,0-.23-.33v0h0v0a1.71,1.71,0,0,1-.74.21l-.28.14a1,1,0,0,1-.38.07v8.54a1.33,1.33,0,0,0,.45.07,3.12,3.12,0,0,1,1.71.91l0,0,.14-.07,0,0a5,5,0,0,0,.47-.3l.61-.4A.16.16,0,0,0,81.16,37.25Z" transform="translate(-2.65 -5)"/><path class="cls-7" d="M98.15,31.07c-.28.14-.84.45-1.66.93s-1.95,1.13-3.37,2a7.22,7.22,0,0,0-.7.45V37a15.32,15.32,0,0,1,2,.45,13.52,13.52,0,0,1,1.73.66l.83-.87.88.8-3.18,3.49-.35-.17c-.48-.26-1-.5-1.43-.72a6.4,6.4,0,0,0-1.6-.5,13.51,13.51,0,0,0-2.65-.32,5.93,5.93,0,0,0-.84.06L87,40c0-.12.1-.22.14-.3a1.89,1.89,0,0,1,.14-.19v0l.4-.62a1.55,1.55,0,0,1,.2-.28,5,5,0,0,1,.94-.84V29.4a5.14,5.14,0,0,0-.56-1.75v-.48l.31.31h.21l0,0h.1l.11,0h.14a11.57,11.57,0,0,0,6.2-2.3c.12.42.27.87.46,1.36a12.86,12.86,0,0,0,.77,1.64c.3.53.58,1,.85,1.48s.52.84.75,1.17ZM92.7,28.32l-.28.07v4.46l1.89-1.22c-.09-.14-.21-.32-.33-.54s-.28-.51-.44-.85-.31-.62-.45-.95S92.82,28.64,92.7,28.32Z" transform="translate(-2.65 -5)"/><path class="cls-7" d="M111.78,27.58a.21.21,0,0,1,.11.21,2.84,2.84,0,0,1-.42,1.05V39h1.36q-.35,0-3.17,3.24c-.1-.4-1.14-1.55-3.14-3.45h.8v-9.7L106,27.9l-1.78,1.36v9.56h1.5a9.33,9.33,0,0,0-3.11,2.58,4.73,4.73,0,0,1-.69.9s0,0,0,0l0-.07c-.21-.93-1.29-2-3.25-3.1l-.07-.21h1.36V29.82c-.32-1.28-.87-1.94-1.64-2l3.07-2.3a9.19,9.19,0,0,1,2.59,1.85,12.11,12.11,0,0,0,3.59-1.92l.45-.35A17.71,17.71,0,0,0,111.78,27.58Z" transform="translate(-2.65 -5)"/><path class="cls-7" d="M126.85,41.61a11.89,11.89,0,0,1-2.09,1.78.41.41,0,0,0-.14.1l-1.36,1a4,4,0,0,0-.73.61c-.26.23-.55.5-.86.8l-1,.94a.73.73,0,0,1-.29-.17,1.77,1.77,0,0,0-.23-.21h0l-.31-.23a3,3,0,0,1-.35-.29h0a.31.31,0,0,0-.13-.09l-.22-.12a3.51,3.51,0,0,0-2.2-.6,5.65,5.65,0,0,0-2.83.95,4.81,4.81,0,0,1,2.27-2.76,6.21,6.21,0,0,1,3.14-.84,5.31,5.31,0,0,1,3.1.77c.84-.77,1.26-1.37,1.26-1.81,0-.28-.26-.68-.77-1.19a2.46,2.46,0,0,1-.9-1.57,11.31,11.31,0,0,0-3.67,3q-1.64-2.13-3.27-2.13a.4.4,0,0,0-.21,0,5.21,5.21,0,0,0-1.15.25,1.45,1.45,0,0,1-.39,0,2.4,2.4,0,0,1,.56-1.32,5.31,5.31,0,0,1,.49-.6,1.17,1.17,0,0,1,.38-.27v-9a.83.83,0,0,1-.07-.21.58.58,0,0,1,0-.14l0-.17a3.85,3.85,0,0,0-.25-.56V27.1a2.21,2.21,0,0,0,1.29.35l.11,0h.17a11.93,11.93,0,0,0,5.09-1.29l.7-.35a12.73,12.73,0,0,0,1.12-.63c.81,1.38,1.77,2.06,2.86,2.06h.1l.68-.33a5.8,5.8,0,0,0,.68-.37,3.36,3.36,0,0,1-1.6,2.76v7.15a3.42,3.42,0,0,0,.84,2.06l0,.07h0l.17.14,0,.07h0a2.42,2.42,0,0,1,.59,1.36A2.28,2.28,0,0,1,126.85,41.61Zm-4.64-4.36V29.68a2.07,2.07,0,0,1-1.67-1,1.27,1.27,0,0,1-.16-.23,2,2,0,0,0-.23-.33v0h0v0a1.67,1.67,0,0,1-.73.21l-.28.14a1,1,0,0,1-.39.07v8.54a1.35,1.35,0,0,0,.46.07,3.19,3.19,0,0,1,1.71.91l0,0,.14-.07,0,0,.47-.3.61-.4A.15.15,0,0,0,122.21,37.25Z" transform="translate(-2.65 -5)"/><path class="cls-7" d="M131.35,25a9.16,9.16,0,0,1,2.51,1.85H134a1.32,1.32,0,0,0,.41-.11A13.09,13.09,0,0,0,137,25.32l.48-.35A8.55,8.55,0,0,0,140.73,27a2,2,0,0,1-.83,1.29,3.26,3.26,0,0,1-1.71.63l-.46,0a10,10,0,0,1-2.65-.42,3.05,3.05,0,0,0-.56-.07c-.39,0-.59.14-.59.42v9.56h1.5a9.83,9.83,0,0,0-3.14,2.58c-.42.63-.66.94-.73.94v-.07l0,0a1.72,1.72,0,0,0-.07-.21A3.81,3.81,0,0,0,131,41a8.73,8.73,0,0,0-2.69-2.23l0-.21h1.36V29.47c-.4-1.14-1-1.73-1.75-1.78Z" transform="translate(-2.65 -5)"/><path class="cls-7" d="M141.4,38.78c-.05.07-.09.11-.11.11a.29.29,0,0,1,.07-.14Zm12.9-.21,1.29.18-3.1,3.52-2.65-2.48-2.34,2.48c-2.14-2.09-4.17-3.26-6.1-3.49l.1-.17a1.84,1.84,0,0,0,.21-.25l.38-.56V28.6a2.12,2.12,0,0,1-.52-1.08v-.07a27.29,27.29,0,0,0,5.62-2.52q2.85,1,5.79,2V37.28A1.64,1.64,0,0,0,154.3,38.57Zm-5.41-9.8a27,27,0,0,0-3.06-1.25v0l.13.1v8.86a17.59,17.59,0,0,1,2.93,1.78Z" transform="translate(-2.65 -5)"/><path class="cls-7" d="M167.59,41.57c-1.81-.44-2.85-1.42-3.1-2.93a.25.25,0,0,0-.09.07s0,0-.09.07c-.26.16-.55.36-.87.59s-.72.52-1.19.84c-.21.16-.43.36-.68.58s-.53.49-.85.82c-1.47-1.35-2.69-2-3.66-2a1.88,1.88,0,0,0-1.16.35,3.1,3.1,0,0,1,1.54-2.4V30.06a1.58,1.58,0,0,0-.73-.77l0,0a1.81,1.81,0,0,0-.42-.11,1.62,1.62,0,0,1-.42-.1.33.33,0,0,0-.13,0h-.32v-.24l3.38-3.49c1.59.82,2.38,1.88,2.38,3.18v8.54a3.41,3.41,0,0,0,1.08.42l-.14,0-.07,0,0,0,.54.36.37.26.07-.07.07,0a.23.23,0,0,0,.09-.07.19.19,0,0,1,.08-.07v0a.86.86,0,0,0,.28-.2,4.8,4.8,0,0,1,.42-.35.31.31,0,0,0,.21-.11l.21-.1-.07-7.36h0l-.07,0-.11,0-.16-.16c0-.06-.13-.14-.22-.26l-.7.35-.66-1c.74-.23,2-1.23,3.76-3q1.78,1.89,2.55,1.89a1.87,1.87,0,0,0,.52-.07l.07-.07,0,0h.07l0,0h.07l0,0h.24a2.42,2.42,0,0,1-1.74,2.62v6.83c0,1.19.56,1.78,1.67,1.78h.07l.07,0a2.3,2.3,0,0,0,.8-.21l.14.24Z" transform="translate(-2.65 -5)"/><path class="cls-7" d="M173.8,25.53l-.39-.53a2.16,2.16,0,0,0,1.12-1.67c0-.74-.63-1.4-1.88-1.95a21.94,21.94,0,0,0,3-2.9c1.41,1,2.12,2,2.12,2.93Q177.77,23.93,173.8,25.53Z" transform="translate(-2.65 -5)"/><path class="cls-7" d="M192.67,26a15.55,15.55,0,0,1-3.84,5.79l3.28-.07s0,.07,0,.14a.88.88,0,0,0,0,.14.29.29,0,0,0,0,.17l0,0v.07l-.07.07v.07l0,.07a.27.27,0,0,1,0,.11.15.15,0,0,0,0,.07v0a1.26,1.26,0,0,0-.07.25l0,.14v5.93a.12.12,0,0,0,0,.1v.11l0,.07v0a.13.13,0,0,1,0,.07l0,.17,0-.07,0,0a.33.33,0,0,0,.07.14l.21.35.14.28a1.21,1.21,0,0,1-.45,0h0a.15.15,0,0,0-.1,0l-.7,0a.93.93,0,0,1-.45-.12,2.49,2.49,0,0,1-.63,0h-.21a5.73,5.73,0,0,0-4.36,1.82l-1-1a2.23,2.23,0,0,0-.53-.37,1.23,1.23,0,0,0-.55-.12,1.37,1.37,0,0,0-.6-.11,2.24,2.24,0,0,0-2.23,1.54h-1a9.31,9.31,0,0,1,1-2.5,17.94,17.94,0,0,1,1.88-2.73l.14-.14.26-.28c.1-.12.23-.25.37-.39l-2.31-.1.25-.25,0,.11a1.44,1.44,0,0,0,.32-.87l0-.07,0-6.07a.08.08,0,0,0,0-.05.11.11,0,0,1,0-.06v0a.31.31,0,0,1,0-.18l-.11-.24v0a.28.28,0,0,1-.07-.2V27.2a1.11,1.11,0,0,0,.74.32,3.28,3.28,0,0,0,1.22.13s.14,0,.35,0a6.57,6.57,0,0,0,3.1-.8,17.15,17.15,0,0,0,1.39-1.33,3,3,0,0,0,2.1,1.29,1.87,1.87,0,0,0,1.64-1l.94-.07Zm-4.5,12.66v-4.4l-.07-.07h-1.78L184.51,36a7.23,7.23,0,0,0-.56.61c-.21.24-.47.51-.77.82l.73-.13a3.83,3.83,0,0,1,.49,0,3.88,3.88,0,0,1,3.11,1.61l.14-.07.1,0a.64.64,0,0,0,.24-.07h.14Zm1.15-9.25a3.15,3.15,0,0,1-1.26.25,4,4,0,0,1-2.3-1,.3.3,0,0,0-.14.07h-.14a.83.83,0,0,1-.38.1v4.4h.38a5.49,5.49,0,0,0,.79-.67l1.31-1.29Z" transform="translate(-2.65 -5)"/><path class="cls-7" d="M206.17,17.68h.13a3.76,3.76,0,0,1,.77.1l.46.14.38.11a19.35,19.35,0,0,0,2,.28l2.06.17c.49,0,1,0,1.5,0a38.51,38.51,0,0,0,4.85-.35l.52-.07.56-.11a4.73,4.73,0,0,1,.7-.07,1.69,1.69,0,0,1,.35,0,5.56,5.56,0,0,1-.53.84l-.59.73-.21.24-.24.32-.6.76a4.1,4.1,0,0,1-1.15,1.08l-.42,0-.41,0h-.91l-1,0h-2l-.73,0-.77,0h-.45a6.19,6.19,0,0,0-1.05.07,23.61,23.61,0,0,0-.18,2.72,9.23,9.23,0,0,0,.21,2.13,3.34,3.34,0,0,0,.84-.32l.8-.34a3,3,0,0,1,.84-.11,4.08,4.08,0,0,1,.59,0l.77.13.8.18a7.07,7.07,0,0,0,1.54.21,1.68,1.68,0,0,0,1.08-.28l.24-.28c.1-.14.18-.21.25-.21l.21,0c.28,0,.41.15.41.45a3.22,3.22,0,0,1-.34,1.19c-.56,1.18-1.06,1.87-1.5,2.05a4.72,4.72,0,0,1-2,.35,15.22,15.22,0,0,1-2.19-.24l-.42-.07-.49-.07a3.75,3.75,0,0,0-.45,0,1.75,1.75,0,0,0-.49.07c-.44.17-.68.86-.7,2.1,0,.39,0,.92,0,1.57l0,.69v.77a4.62,4.62,0,0,1-.31,1.61,5.45,5.45,0,0,0-.39.9A6.35,6.35,0,0,0,209.9,37l.59-.1.59-.07c.21,0,.43,0,.67,0a9.2,9.2,0,0,1,1.5.14l1,.21.94.18.77.1.87,0H217a2.07,2.07,0,0,0,1.29-.32,1.76,1.76,0,0,0,.35-.42l.28-.59a2.06,2.06,0,0,1,.66-.94l.35,0,.31,0a.67.67,0,0,1,.53.66v.07a21.55,21.55,0,0,1-1.47,2.76,19.1,19.1,0,0,1-1.57,2.54v0l-.14.07-.38.07h-.42a36.82,36.82,0,0,1-3.8-.6l-1.89-.34-1.85-.25a10.68,10.68,0,0,0-1.29-.07,11.67,11.67,0,0,0-1.32.07,4.16,4.16,0,0,0-.73.14l-1.08.25a6.39,6.39,0,0,1-1.37.24.37.37,0,0,1-.27-.07.41.41,0,0,1-.21-.35.75.75,0,0,1,.17-.45l.38-.39.14-.1.14-.11a1.49,1.49,0,0,0,.42-.41,1.69,1.69,0,0,0,.35-.53,3.32,3.32,0,0,0,.14-1.08c0-.18,0-.38,0-.59l0-.94,0-.39,0-.31c-.07-.81-.1-1.8-.1-3,0-.58,0-1.2,0-1.88l.07-2.48.07-2.47,0-.56v-.84a2.08,2.08,0,0,1,.14-.87,2.55,2.55,0,0,1,.76-.94l.49-.42.42-.45a1.67,1.67,0,0,0-.59-.11,2,2,0,0,0-.63.11,5.3,5.3,0,0,0-1,.55,2.81,2.81,0,0,1-1.29.53.44.44,0,0,1-.32-.11.58.58,0,0,1-.24-.42.69.69,0,0,1,.17-.41l1.5-1.57,1.5-1.57.14-.14.18-.18A.78.78,0,0,1,206.17,17.68Z" transform="translate(-2.65 -5)"/><path class="cls-7" d="M235,26a15.3,15.3,0,0,1-3.84,5.79l3.28-.07a.49.49,0,0,1,0,.14.88.88,0,0,0,0,.14.29.29,0,0,0,0,.17l0,0v.07l-.07.07v.07l0,.07a.31.31,0,0,1,0,.11.08.08,0,0,0,0,.07v0a1.26,1.26,0,0,0-.07.25l0,.14v5.93a.12.12,0,0,0,0,.1v.11l0,.07v0a.09.09,0,0,1,0,.07l0,.17,0-.07,0,0a.56.56,0,0,0,.07.14l.21.35.14.28a1.25,1.25,0,0,1-.45,0h0a.15.15,0,0,0-.1,0l-.7,0a.93.93,0,0,1-.45-.12,2.49,2.49,0,0,1-.63,0h-.21a5.73,5.73,0,0,0-4.36,1.82l-1-1a2.42,2.42,0,0,0-.52-.37,1.28,1.28,0,0,0-.56-.12A1.37,1.37,0,0,0,225,40a2.24,2.24,0,0,0-2.23,1.54h-1a9.66,9.66,0,0,1,1-2.5,17.94,17.94,0,0,1,1.88-2.73l.14-.14.26-.28.37-.39-2.3-.1.24-.25,0,.11a1.49,1.49,0,0,0,.31-.87l0-.07,0-6.07a.08.08,0,0,0,0-.05.11.11,0,0,1,0-.06v0a.31.31,0,0,1,0-.18l-.11-.24v0a.28.28,0,0,1-.06-.2V27.2a1.07,1.07,0,0,0,.73.32,3.28,3.28,0,0,0,1.22.13s.14,0,.35,0a6.54,6.54,0,0,0,3.1-.8,18.19,18.19,0,0,0,1.4-1.33,3,3,0,0,0,2.09,1.29,1.87,1.87,0,0,0,1.64-1l.94-.07Zm-4.5,12.66v-4.4l-.07-.07h-1.78L226.85,36c-.16.16-.35.36-.56.61s-.47.51-.77.82l.74-.13a3.71,3.71,0,0,1,.48,0,3.88,3.88,0,0,1,3.11,1.61l.14-.07.1,0a.73.73,0,0,0,.25-.07h.14Zm1.15-9.25a3.1,3.1,0,0,1-1.25.25,4,4,0,0,1-2.31-1,.3.3,0,0,0-.14.07h-.13a.87.87,0,0,1-.39.1v4.4h.39a6.19,6.19,0,0,0,.78-.67c.34-.32.77-.75,1.31-1.29Z" transform="translate(-2.65 -5)"/><path class="cls-7" d="M248.93,26a15.55,15.55,0,0,1-3.84,5.79l3.28-.07s0,.07,0,.14,0,.11,0,.14a.4.4,0,0,0,0,.17l0,0v.07l-.07.07v.07l0,.07a.27.27,0,0,1,0,.11.14.14,0,0,0,0,.07v0l-.07.25,0,.14v5.93a.15.15,0,0,0,0,.1v.11l0,.07v0a.11.11,0,0,1,0,.07l0,.17,0-.07,0,0a.33.33,0,0,0,.07.14l.21.35.14.28a1.32,1.32,0,0,1-.46,0h0a.16.16,0,0,0-.11,0l-.69,0a1,1,0,0,1-.46-.12,2.45,2.45,0,0,1-.62,0H246a5.73,5.73,0,0,0-4.36,1.82l-1-1a2.45,2.45,0,0,0-.53-.37,1.25,1.25,0,0,0-.56-.12A1.32,1.32,0,0,0,239,40a2.24,2.24,0,0,0-2.23,1.54h-1a9.62,9.62,0,0,1,1-2.5,18.83,18.83,0,0,1,1.89-2.73l.14-.14.26-.28c.1-.12.23-.25.36-.39l-2.3-.1.25-.25,0,.11a1.44,1.44,0,0,0,.32-.87l0-.07,0-6.07a.08.08,0,0,0,0-.05.11.11,0,0,1,0-.06v0a.31.31,0,0,1,0-.18l-.11-.24v0a.24.24,0,0,1-.07-.2V27.2a1.09,1.09,0,0,0,.73.32,3.34,3.34,0,0,0,1.23.13s.13,0,.34,0a6.57,6.57,0,0,0,3.11-.8,17.15,17.15,0,0,0,1.39-1.33,3,3,0,0,0,2.1,1.29,1.87,1.87,0,0,0,1.64-1l.94-.07Zm-4.5,12.66v-4.4l-.07-.07h-1.78L240.77,36a7.23,7.23,0,0,0-.56.61c-.21.24-.47.51-.77.82l.73-.13a3.57,3.57,0,0,1,3.59,1.56l.14-.07.11,0a.64.64,0,0,0,.24-.07h.14Zm1.15-9.25a3.18,3.18,0,0,1-1.26.25,4,4,0,0,1-2.3-1,.26.26,0,0,0-.14.07h-.14a.86.86,0,0,1-.38.1v4.4h.38a5.49,5.49,0,0,0,.79-.67c.33-.32.77-.75,1.3-1.29Z" transform="translate(-2.65 -5)"/><path class="cls-7" d="M260.68,31.07c-.28.14-.83.45-1.66.93s-1.94,1.13-3.36,2a7.22,7.22,0,0,0-.7.45V37a15.69,15.69,0,0,1,2,.45,13.37,13.37,0,0,1,1.72.66l.84-.87.87.8-3.17,3.49-.35-.17c-.49-.26-1-.5-1.43-.72a6.48,6.48,0,0,0-1.61-.5,13.43,13.43,0,0,0-2.65-.32,5.79,5.79,0,0,0-.83.06l-.84.12a2.15,2.15,0,0,1,.14-.3,1,1,0,0,1,.14-.19v0c.16-.25.29-.46.4-.62a1.82,1.82,0,0,1,.19-.28,5.37,5.37,0,0,1,.94-.84V29.4a4.92,4.92,0,0,0-.56-1.75v-.48l.32.31h.21l0,0h.11l.1,0h.14a11.57,11.57,0,0,0,6.21-2.3c.12.42.27.87.45,1.36a16.35,16.35,0,0,0,.77,1.64c.3.53.59,1,.86,1.48a13.39,13.39,0,0,0,.75,1.17Zm-5.44-2.75-.28.07v4.46l1.88-1.22-.33-.54c-.13-.22-.27-.51-.43-.85a10.4,10.4,0,0,1-.46-.95C255.48,29,255.36,28.64,255.24,28.32Z" transform="translate(-2.65 -5)"/><path class="cls-7" d="M274.32,27.58c.07,0,.1.1.1.21a2.84,2.84,0,0,1-.42,1.05V39h1.37q-.36,0-3.18,3.24-.13-.6-3.14-3.45h.8v-9.7l-1.36-1.15-1.77,1.36v9.56h1.49a9.38,9.38,0,0,0-3.1,2.58,4.49,4.49,0,0,1-.7.9,0,0,0,0,1,0,0l0-.07c-.21-.93-1.29-2-3.24-3.1l-.07-.21h1.36V29.82c-.33-1.28-.87-1.94-1.64-2l3.07-2.3a8.91,8.91,0,0,1,2.58,1.85,12,12,0,0,0,3.59-1.92l.46-.35A17.71,17.71,0,0,0,274.32,27.58Z" transform="translate(-2.65 -5)"/><path class="cls-7" d="M281.22,40.87a5.27,5.27,0,0,0-3.52-1.7,1.29,1.29,0,0,0-1.18.59v-.49a4.45,4.45,0,0,1,.27-.8,3.14,3.14,0,0,1,1.33-1.5V28.53h-.59a2.32,2.32,0,0,1-.56.21,1.49,1.49,0,0,1-.31.1l0,.07h-.07l-.38.21v-.24a.51.51,0,0,1,0-.21v-.11l0-.07a.58.58,0,0,1,0-.21V28a1.49,1.49,0,0,1,0-.21c0-.07,0-.15,0-.25v-.2l0-.11V27a3.87,3.87,0,0,1-.14-1.26,5.74,5.74,0,0,0,.75.35,2.83,2.83,0,0,0,.47.14,1.71,1.71,0,0,1,.45,0h.28V24.59l0-.07v-.39A.26.26,0,0,1,278,24a.44.44,0,0,1-.06-.16.75.75,0,0,0,0-.16v0a.39.39,0,0,1-.07-.28l.25-.07,0,.07h.17v0a4.84,4.84,0,0,0,3.7-2.16v.46l0,0a.76.76,0,0,0-.06.21,2.34,2.34,0,0,1-.08.35v0a.34.34,0,0,1,0,.18,4,4,0,0,0-.14.83v2.8h1.08l.07,0A2.11,2.11,0,0,0,284,25.7v.39a.35.35,0,0,0,0,.2,2.22,2.22,0,0,0-.1.88h0a15.53,15.53,0,0,0,.17,1.95l-.38-.21,0,0h0a4.77,4.77,0,0,0-.87-.23,8.55,8.55,0,0,0-1.12-.12v8a.79.79,0,0,0,.56.24l.11,0a.3.3,0,0,1,.14.07.28.28,0,0,0,.2.1l.09.06a.13.13,0,0,1,.09,0h0l.27.19a2,2,0,0,0,.36.23l.35-.35.7.8Z" transform="translate(-2.65 -5)"/><path class="cls-7" d="M290.12,41.54a4.47,4.47,0,0,1-1.12-.23,3.16,3.16,0,0,1-1-.61,2.43,2.43,0,0,1-1-1.92V30a.93.93,0,0,1-.8-.63l-.49.28-.49-.69.11-.18,0,0,.07-.07.07,0,.77-.71c.28-.27.65-.6,1.11-1a6.81,6.81,0,0,0,.95-.77l.13-.1.21-.21v-.42c1,1.35,1.79,2,2.52,2a3.61,3.61,0,0,0,1.11-.49v.42a1.39,1.39,0,0,0-.07.48,3.65,3.65,0,0,1-.73,1.31,2.75,2.75,0,0,1-.94.72v7.43a1.39,1.39,0,0,0,.17.55c.21.45.69.67,1.43.67a2.5,2.5,0,0,0,.91-.21l.14.24Zm-.94-16.36h-.28v0h-.35l-.07,0A1.5,1.5,0,0,1,286.84,24l-.56.28-.45-.77a2.21,2.21,0,0,1,.59-.44l.59-.29-.07.07.3-.23.37-.3.57-.42.72-.52a2.43,2.43,0,0,0,1.88,1.33,1.21,1.21,0,0,1,.3-.09,1,1,0,0,0,.29-.09h0l.07-.07h0l0,0h0l0,0h.24v.32a2,2,0,0,1-.22.92,2.81,2.81,0,0,1-.6.77,3.13,3.13,0,0,1-.83.54A2.38,2.38,0,0,1,289.18,25.18Z" transform="translate(-2.65 -5)"/><path class="cls-7" d="M293.57,38.78c-.05.07-.08.11-.1.11a.29.29,0,0,1,.07-.14Zm12.91-.21,1.29.18-3.11,3.52L302,39.79l-2.33,2.48c-2.14-2.09-4.18-3.26-6.11-3.49l.11-.17a1.84,1.84,0,0,0,.21-.25l.38-.56V28.6a2.12,2.12,0,0,1-.52-1.08v-.07a27,27,0,0,0,5.61-2.52q2.86,1,5.79,2V37.28A1.67,1.67,0,0,0,306.48,38.57Zm-5.41-9.8A26.68,26.68,0,0,0,298,27.52v0l.14.1v8.86a17.59,17.59,0,0,1,2.93,1.78Z" transform="translate(-2.65 -5)"/><path class="cls-7" d="M311.81,41.57a10.13,10.13,0,0,0-4.29-2.16,4.69,4.69,0,0,1,1.68-1.74V23.43L309,22.35a.08.08,0,0,0,0-.05.08.08,0,0,1,0-.05v0a.62.62,0,0,1,0-.24l-.07-.11,0,0a.4.4,0,0,0,0-.17l0-.07V21.2a1.19,1.19,0,0,0,.32.12.75.75,0,0,0,.21,0c.81,0,2.09-.7,3.83-2.09l.18.14a3.81,3.81,0,0,0-.25.66l-.24.87a6.8,6.8,0,0,0-.24,1.5v14.9a7.53,7.53,0,0,1,1.11.73l0,0h0l.07,0a1.37,1.37,0,0,1,.21.24l.11.11.52-.49.7.91Z" transform="translate(-2.65 -5)"/><path class="cls-7" d="M328.69,17.68h.14a3.84,3.84,0,0,1,.77.1l.45.14.39.11a19.35,19.35,0,0,0,2,.28l2.06.17c.49,0,1,0,1.5,0a38.51,38.51,0,0,0,4.85-.35l.52-.07L342,18a4.6,4.6,0,0,1,.7-.07,1.51,1.51,0,0,1,.34,0,4.79,4.79,0,0,1-.52.84l-.59.73-.21.24-.24.32-.6.76a4.1,4.1,0,0,1-1.15,1.08l-.42,0-.42,0h-.9l-1,0H335l-.74,0-.76,0h-.46a6.14,6.14,0,0,0-1,.07,23.61,23.61,0,0,0-.18,2.72,9.23,9.23,0,0,0,.21,2.13,3.49,3.49,0,0,0,.84-.32l.8-.34a2.9,2.9,0,0,1,.84-.11,4.18,4.18,0,0,1,.59,0l.77.13.8.18a7.07,7.07,0,0,0,1.54.21,1.72,1.72,0,0,0,1.08-.28l.24-.28c.09-.14.18-.21.25-.21a.76.76,0,0,1,.21,0c.27,0,.41.15.41.45a3.09,3.09,0,0,1-.35,1.19c-.55,1.18-1.05,1.87-1.5,2.05a4.64,4.64,0,0,1-2,.35,15.5,15.5,0,0,1-2.2-.24l-.41-.07-.49-.07a4.09,4.09,0,0,0-.46,0,1.73,1.73,0,0,0-.48.07c-.45.17-.68.86-.7,2.1,0,.39,0,.92,0,1.57l0,.69v.77a4.54,4.54,0,0,1-.32,1.61,6.83,6.83,0,0,0-.38.9,6.35,6.35,0,0,0,1.26-.14l.59-.1.59-.07c.21,0,.43,0,.66,0a9,9,0,0,1,1.5.14l1,.21.94.18.77.1.87,0h.18a2.07,2.07,0,0,0,1.29-.32,1.76,1.76,0,0,0,.35-.42l.28-.59a2.06,2.06,0,0,1,.66-.94l.35,0,.31,0a.66.66,0,0,1,.52.66v.07a19.35,19.35,0,0,1-1.46,2.76,19.1,19.1,0,0,1-1.57,2.54v0a.58.58,0,0,1-.14.07l-.38.07h-.42a36.82,36.82,0,0,1-3.8-.6l-1.89-.34-1.85-.25a10.8,10.8,0,0,0-1.29-.07,11.67,11.67,0,0,0-1.32.07,4.16,4.16,0,0,0-.73.14l-1.09.25a6.23,6.23,0,0,1-1.36.24.39.39,0,0,1-.28-.07.43.43,0,0,1-.21-.35.77.77,0,0,1,.18-.45l.38-.39.14-.1.14-.11a1.81,1.81,0,0,0,.42-.41,1.69,1.69,0,0,0,.35-.53,3.32,3.32,0,0,0,.14-1.08,4.18,4.18,0,0,0,0-.59l0-.94,0-.39,0-.31c-.07-.81-.11-1.8-.11-3,0-.58,0-1.2,0-1.88l.07-2.48.07-2.47,0-.56v-.84a2.25,2.25,0,0,1,.14-.87,2.72,2.72,0,0,1,.77-.94l.49-.42.42-.45a1.71,1.71,0,0,0-.59-.11,2,2,0,0,0-.63.11,5,5,0,0,0-1,.55,2.81,2.81,0,0,1-1.29.53.44.44,0,0,1-.32-.11.58.58,0,0,1-.24-.42.69.69,0,0,1,.17-.41l1.5-1.57,1.5-1.57.14-.14.18-.18A.76.76,0,0,1,328.69,17.68Z" transform="translate(-2.65 -5)"/><path class="cls-7" d="M357.54,26a15.3,15.3,0,0,1-3.84,5.79l3.28-.07a.49.49,0,0,1,0,.14.88.88,0,0,0,0,.14.29.29,0,0,0,0,.17l0,0v.07l-.07.07v.07l0,.07s0,.09,0,.11a.15.15,0,0,0,0,.07v0a1.26,1.26,0,0,0-.07.25l0,.14v5.93a.12.12,0,0,0,0,.1v.11l0,.07v0a.09.09,0,0,1,0,.07l0,.17,0-.07,0,0a.56.56,0,0,0,.07.14l.21.35.14.28a1.21,1.21,0,0,1-.45,0h0a.15.15,0,0,0-.1,0l-.7,0a.93.93,0,0,1-.45-.12,2.49,2.49,0,0,1-.63,0h-.21a5.73,5.73,0,0,0-4.36,1.82l-1-1a2.42,2.42,0,0,0-.52-.37,1.28,1.28,0,0,0-.56-.12,1.37,1.37,0,0,0-.6-.11,2.24,2.24,0,0,0-2.23,1.54h-1a9.66,9.66,0,0,1,1-2.5,17.94,17.94,0,0,1,1.88-2.73l.14-.14.26-.28.37-.39-2.3-.1.24-.25,0,.11a1.49,1.49,0,0,0,.31-.87l0-.07,0-6.07a.08.08,0,0,0,0-.05.11.11,0,0,1,0-.06v0a.31.31,0,0,1,0-.18l-.11-.24v0a.28.28,0,0,1-.07-.2V27.2a1.11,1.11,0,0,0,.74.32,3.28,3.28,0,0,0,1.22.13s.14,0,.35,0a6.54,6.54,0,0,0,3.1-.8,18.19,18.19,0,0,0,1.4-1.33,3,3,0,0,0,2.09,1.29,1.87,1.87,0,0,0,1.64-1l.94-.07ZM353,38.61v-4.4l-.07-.07h-1.78L349.38,36a7.23,7.23,0,0,0-.56.61c-.21.24-.47.51-.77.82l.73-.13a4,4,0,0,1,.49,0,3.88,3.88,0,0,1,3.11,1.61l.14-.07.1,0a.73.73,0,0,0,.25-.07H353Zm1.15-9.25a3.1,3.1,0,0,1-1.25.25,4,4,0,0,1-2.31-1,.3.3,0,0,0-.14.07h-.14a.83.83,0,0,1-.38.1v4.4h.38a5.49,5.49,0,0,0,.79-.67c.34-.32.77-.75,1.31-1.29Z" transform="translate(-2.65 -5)"/><path class="cls-7" d="M363.33,40.87a5.31,5.31,0,0,0-3.52-1.7,1.31,1.31,0,0,0-1.19.59v-.49a4.07,4.07,0,0,1,.28-.8,3.12,3.12,0,0,1,1.32-1.5V28.53h-.59a2.17,2.17,0,0,1-.56.21,1.49,1.49,0,0,1-.31.1l0,.07h-.07l-.38.21v-.24a.37.37,0,0,1,0-.21v-.11l0-.07a.41.41,0,0,1,0-.21V28a1.48,1.48,0,0,1,0-.21,1.76,1.76,0,0,1,.06-.25v-.2l0-.11V27a4.18,4.18,0,0,1-.14-1.26,5.74,5.74,0,0,0,.75.35,3.53,3.53,0,0,0,.47.14,1.82,1.82,0,0,1,.45,0h.28V24.59l0-.07v-.39a.43.43,0,0,1-.07-.1.75.75,0,0,1-.05-.16.75.75,0,0,0-.05-.16v0a.39.39,0,0,1-.08-.28l.25-.07,0,.07h.18v0a4.87,4.87,0,0,0,3.7-2.16v.46l0,0A.81.81,0,0,0,364,22a1.64,1.64,0,0,1-.09.35v0a.48.48,0,0,1,0,.18,3.42,3.42,0,0,0-.14.83v2.8h1.08l.07,0a2.09,2.09,0,0,0,1.22-.49v.39a.46.46,0,0,0,0,.2,2.22,2.22,0,0,0-.1.88h0a14.11,14.11,0,0,0,.18,1.95l-.38-.21,0,0h0a4.56,4.56,0,0,0-.87-.23,8.2,8.2,0,0,0-1.11-.12v8a.77.77,0,0,0,.56.24l.1,0a.26.26,0,0,1,.14.07.29.29,0,0,0,.21.1.2.2,0,0,0,.09.06.14.14,0,0,1,.08,0h0a2.34,2.34,0,0,1,.26.19,2.14,2.14,0,0,0,.37.23l.34-.35.7.8Z" transform="translate(-2.65 -5)"/><path class="cls-7" d="M367,38.78c0,.07-.09.11-.11.11a.29.29,0,0,1,.07-.14Zm12.9-.21,1.29.18-3.1,3.52-2.65-2.48-2.34,2.48C371,40.18,369,39,367,38.78l.1-.17a1.84,1.84,0,0,0,.21-.25l.38-.56V28.6a2.12,2.12,0,0,1-.52-1.08v-.07a27.29,27.29,0,0,0,5.62-2.52q2.85,1,5.79,2V37.28A1.64,1.64,0,0,0,379.93,38.57Zm-5.41-9.8a26.19,26.19,0,0,0-3.06-1.25v0l.14.1v8.86a17.89,17.89,0,0,1,2.92,1.78Z" transform="translate(-2.65 -5)"/><path class="cls-7" d="M394.51,27.48a2.53,2.53,0,0,1-1.05,1.71v10a.86.86,0,0,0,.16.41,4.4,4.4,0,0,0,.44.56c-.4-.11-.78-.21-1.15-.28a6.51,6.51,0,0,0-1.19-.1,8.93,8.93,0,0,0-5.65,1.81,6,6,0,0,0-4.15-1.81h0l0,0h-.21l-.07,0h-.52a2.67,2.67,0,0,1,1.64-2.06l0-15.17v0a4.13,4.13,0,0,0-.49-1h0l-.11-.11v0l0,0V21l.24.24h.07l0,0a4.75,4.75,0,0,0,2.3-.63l.78-.56c.41-.28.94-.65,1.59-1.12a16.36,16.36,0,0,0-.52,1.57,4.88,4.88,0,0,0-.14.7v7.19l4.32-2.9a3.35,3.35,0,0,0,2.93,2h.11a1,1,0,0,0,.21-.11l0,0a.34.34,0,0,1,.25-.07s.07,0,.14,0,0,0,.05,0h.05ZM389.7,38.64V29.85h0a.58.58,0,0,1-.21,0,.26.26,0,0,1-.17-.07,2.86,2.86,0,0,1-1.19-.87L386.35,30l.07,7.4a7.23,7.23,0,0,1,2.44,1.36v.07l.25-.07Z" transform="translate(-2.65 -5)"/><path class="cls-7" d="M399.43,41.57a10.13,10.13,0,0,0-4.29-2.16,4.6,4.6,0,0,1,1.67-1.74V23.43l-.21-1.08a.07.07,0,0,0,0-.05s0,0,0-.05v0a.57.57,0,0,1,0-.24l-.07-.11,0,0a.29.29,0,0,0,0-.17l0-.07V21.2a1.16,1.16,0,0,0,.31.12.75.75,0,0,0,.21,0c.82,0,2.1-.7,3.84-2.09l.17.14a3.84,3.84,0,0,0-.24.66l-.24.87a6.37,6.37,0,0,0-.25,1.5v14.9a8.07,8.07,0,0,1,1.12.73l0,0h0l.07,0,.21.24.1.11.52-.49.7.91Z" transform="translate(-2.65 -5)"/><path class="cls-7" d="M408.53,41.54a4.39,4.39,0,0,1-1.11-.23,3.1,3.1,0,0,1-1.05-.61,2.43,2.43,0,0,1-1.05-1.92V30a.94.94,0,0,1-.8-.63l-.49.28-.49-.69.11-.18,0,0,.07-.07.07,0c.24-.21.49-.45.77-.71s.65-.6,1.12-1a6.83,6.83,0,0,0,.94-.77l.14-.1.21-.21v-.42c.95,1.35,1.79,2,2.51,2a3.73,3.73,0,0,0,1.12-.49v.42a1.39,1.39,0,0,0-.07.48,3.81,3.81,0,0,1-.74,1.31,2.66,2.66,0,0,1-.94.72v7.43a1.28,1.28,0,0,0,.18.55c.21.45.68.67,1.43.67a2.5,2.5,0,0,0,.9-.21l.14.24Zm-.94-16.36h-.28v0H407l-.07,0A1.5,1.5,0,0,1,405.25,24l-.55.28-.46-.77a2.43,2.43,0,0,1,.6-.44l.59-.29-.07.07.29-.23.37-.3c.16-.11.36-.25.58-.42l.71-.52c.61.89,1.23,1.33,1.88,1.33a1.21,1.21,0,0,1,.3-.09,1.21,1.21,0,0,0,.3-.09h0l.07-.07h0l0,0h0l0,0h.25v.32a2,2,0,0,1-.23.92,2.77,2.77,0,0,1-.59.77,3.35,3.35,0,0,1-.84.54A2.31,2.31,0,0,1,407.59,25.18Z" transform="translate(-2.65 -5)"/><path class="cls-7" d="M425.38,26a15.55,15.55,0,0,1-3.84,5.79l3.28-.07s0,.07,0,.14a.88.88,0,0,0,0,.14.29.29,0,0,0,0,.17l0,0v.07l-.07.07v.07l0,.07s0,.09,0,.11a.15.15,0,0,0,0,.07v0a1.26,1.26,0,0,0-.07.25l0,.14v5.93a.12.12,0,0,0,0,.1v.11l0,.07v0a.13.13,0,0,1,0,.07l0,.17,0-.07,0,0a.33.33,0,0,0,.07.14l.21.35L425,40a1.21,1.21,0,0,1-.45,0h0a.15.15,0,0,0-.1,0l-.7,0a.93.93,0,0,1-.45-.12,2.49,2.49,0,0,1-.63,0h-.21a5.73,5.73,0,0,0-4.36,1.82l-1-1a2.23,2.23,0,0,0-.53-.37,1.23,1.23,0,0,0-.55-.12,1.37,1.37,0,0,0-.6-.11,2.24,2.24,0,0,0-2.23,1.54h-1a9.66,9.66,0,0,1,1-2.5A17.94,17.94,0,0,1,415,36.31l.14-.14.26-.28c.1-.12.23-.25.37-.39l-2.31-.1.25-.25,0,.11a1.44,1.44,0,0,0,.32-.87l0-.07,0-6.07a.08.08,0,0,0,0-.05.11.11,0,0,1,0-.06v0a.31.31,0,0,1,0-.18l-.11-.24v0a.28.28,0,0,1-.07-.2V27.2a1.11,1.11,0,0,0,.74.32,3.28,3.28,0,0,0,1.22.13s.14,0,.35,0a6.54,6.54,0,0,0,3.1-.8,17.15,17.15,0,0,0,1.39-1.33,3,3,0,0,0,2.1,1.29,1.87,1.87,0,0,0,1.64-1l.94-.07Zm-4.5,12.66v-4.4l-.07-.07H419L417.22,36a7.23,7.23,0,0,0-.56.61c-.21.24-.47.51-.77.82l.73-.13a4,4,0,0,1,.49,0,3.88,3.88,0,0,1,3.11,1.61l.14-.07.1,0a.64.64,0,0,0,.24-.07h.14ZM422,29.36a3.15,3.15,0,0,1-1.26.25,4,4,0,0,1-2.3-1,.3.3,0,0,0-.14.07h-.14a.83.83,0,0,1-.38.1v4.4h.38a5.49,5.49,0,0,0,.79-.67l1.31-1.29Z" transform="translate(-2.65 -5)"/><path class="cls-7" d="M440.17,27.13a1.16,1.16,0,0,1,0,.28,2.87,2.87,0,0,1-1.22,1.81l0,9.07v0a5,5,0,0,0,.76,1.43v0l.07.07v0l.07.07-.17.24a4,4,0,0,0-1.81-.35q-1.81,0-1.92.6l.24.24H436a2.74,2.74,0,0,0,.26.28l.47.42a3.81,3.81,0,0,1,1.71,2.82,2.37,2.37,0,0,1-1.25,2.1,1.61,1.61,0,0,1-.7.31l-.07,0h-.21l0,0H436a1.49,1.49,0,0,1-1.47-1c.75-.28,1.12-.68,1.12-1.19a1.59,1.59,0,0,0-.39-1.08c-.07,0-.11-.14-.13-.35l0,0a3.72,3.72,0,0,1-.66-2.13,1.12,1.12,0,0,1,.42-1.05v0a1.2,1.2,0,0,0,.38-.84v-9a2,2,0,0,1-1-.42,7.23,7.23,0,0,1-.83-.59l0,0L431.94,30v7.22l.31.11.42.14a5.43,5.43,0,0,1,1,.59,4.75,4.75,0,0,1,.68.66l-3.21,2.93a5.49,5.49,0,0,0-3.56-1.88h-.17l-.21,0a2.07,2.07,0,0,0-.42.18,2.36,2.36,0,0,1-.38.1,1.59,1.59,0,0,1-.28,0,3.66,3.66,0,0,1,2.19-2.65V22.84a5.8,5.8,0,0,0-.66-2.09,5.23,5.23,0,0,0,2-.42,10.74,10.74,0,0,0,2.13-1.22,9.6,9.6,0,0,0,.77-.63l0,0,.28,0c0,.14-.1.29-.15.45s-.1.28-.13.35l-.1.21a4.57,4.57,0,0,0-.28,1.05.11.11,0,0,0,0,.07v0c-.05.26-.09.47-.11.63a3.23,3.23,0,0,0,0,.35v6.56l4.39-3.35c.63,1.28,1.29,1.92,2,1.92a.4.4,0,0,0,.21,0,4.43,4.43,0,0,0,1.74-.8v.49a.42.42,0,0,1,0,.17.83.83,0,0,1-.05.18A.88.88,0,0,0,440.17,27.13Z" transform="translate(-2.65 -5)"/><path class="cls-7" d="M459.25,41.89H459a2,2,0,0,1-.84-.2,2.31,2.31,0,0,1-.73-.5,2.91,2.91,0,0,1-.53-.72,1.66,1.66,0,0,1-.21-.78V30.31h-.1l-.14-.07-.16-.07-.15-.07a2.86,2.86,0,0,1-1.19-.91l-1.36,1v7.47a5.49,5.49,0,0,1,.75.45c.34.23.81.55,1.41.94l-3,2.9c-1.37-1.24-2.52-1.85-3.45-1.85a2.19,2.19,0,0,0-1.22.42A4.45,4.45,0,0,1,450,37.94V30.58a2,2,0,0,0-1-1.74l-2.27,1.74v7.09l.3.12.33.12a3,3,0,0,1,.82.47,2,2,0,0,1,.47.58l-3.1,3a3.75,3.75,0,0,0-3-1.85,2.53,2.53,0,0,0-1.32.31,3.83,3.83,0,0,1,.71-1.41,3.08,3.08,0,0,1,1.17-1V30.45c0-.61-.68-1.07-2.06-1.4v-.24l3.35-3.46A4.49,4.49,0,0,1,447,28.7l4.18-3.35a4.84,4.84,0,0,1,2.51,3.11l3.77-2.93c1,1.25,1.76,1.88,2.34,1.88a3.18,3.18,0,0,0,1.74-.63v.6a.25.25,0,0,1,0,.08.25.25,0,0,0,0,.12,1,1,0,0,1,0,.16,1.11,1.11,0,0,0,0,.19,2,2,0,0,1-.31.86,5,5,0,0,1-.63.75v8a.88.88,0,0,0,.33.65,1,1,0,0,0,.68.29,2.38,2.38,0,0,0,.67-.14h0l.07,0h.07l.07-.07h.45Z" transform="translate(-2.65 -5)"/><path class="cls-7" d="M474.42,31.07c-.28.14-.83.45-1.66.93s-1.95,1.13-3.36,2a6.18,6.18,0,0,0-.7.45V37a15.15,15.15,0,0,1,2,.45,13,13,0,0,1,1.73.66l.84-.87.87.8L471,41.57l-.35-.17c-.49-.26-1-.5-1.43-.72a6.48,6.48,0,0,0-1.61-.5,13.51,13.51,0,0,0-2.65-.32,5.93,5.93,0,0,0-.84.06c-.28,0-.55.07-.83.12a1.4,1.4,0,0,1,.14-.3.72.72,0,0,1,.14-.19v0c.16-.25.29-.46.4-.62a1.82,1.82,0,0,1,.19-.28,5.37,5.37,0,0,1,.94-.84V29.4a5.14,5.14,0,0,0-.56-1.75v-.48l.32.31H465l0,0h.11l.1,0h.14a11.57,11.57,0,0,0,6.21-2.3c.11.42.27.87.45,1.36a14.39,14.39,0,0,0,.77,1.64l.85,1.48q.41.68.75,1.17ZM469,28.32l-.28.07v4.46l1.88-1.22-.33-.54c-.13-.22-.27-.51-.44-.85s-.31-.62-.45-.95S469.09,28.64,469,28.32Z" transform="translate(-2.65 -5)"/><path class="cls-7" d="M488.06,27.58c.07,0,.1.1.1.21a2.84,2.84,0,0,1-.42,1.05V39h1.36q-.35,0-3.17,3.24-.14-.6-3.14-3.45h.8v-9.7l-1.36-1.15-1.78,1.36v9.56H482a9.27,9.27,0,0,0-3.1,2.58,4.49,4.49,0,0,1-.7.9,0,0,0,0,1,0,0l0-.07c-.21-.93-1.29-2-3.24-3.1l-.07-.21h1.36V29.82c-.33-1.28-.87-1.94-1.64-2l3.07-2.3a8.91,8.91,0,0,1,2.58,1.85,12.11,12.11,0,0,0,3.59-1.92l.45-.35A17.72,17.72,0,0,0,488.06,27.58Z" transform="translate(-2.65 -5)"/><path class="cls-7" d="M495,40.87a5.29,5.29,0,0,0-3.52-1.7,1.31,1.31,0,0,0-1.19.59v-.49a5,5,0,0,1,.28-.8,3.14,3.14,0,0,1,1.33-1.5V28.53h-.59a2.32,2.32,0,0,1-.56.21,1.71,1.71,0,0,1-.32.1l0,.07h-.07l-.39.21v-.24a.48.48,0,0,1,0-.21v-.11l0-.07a.56.56,0,0,1,0-.21V28a1.49,1.49,0,0,1,0-.21c0-.07,0-.15.05-.25v-.2l0-.11V27a4.18,4.18,0,0,1-.14-1.26,7.29,7.29,0,0,0,.75.35,3.2,3.2,0,0,0,.48.14,1.71,1.71,0,0,1,.45,0h.28V24.59l0-.07v-.39l-.07-.1a.75.75,0,0,1-.05-.16.75.75,0,0,0-.05-.16v0a.39.39,0,0,1-.07-.28l.24-.07,0,.07H492v0a4.86,4.86,0,0,0,3.7-2.16v.46l0,0a.81.81,0,0,0-.05.21,2.34,2.34,0,0,1-.08.35v0a.48.48,0,0,1,0,.18,4,4,0,0,0-.14.83v2.8h1.08l.07,0a2.09,2.09,0,0,0,1.22-.49v.39a.49.49,0,0,0,0,.2,2.16,2.16,0,0,0-.11.88h0a15.53,15.53,0,0,0,.17,1.95l-.38-.21,0,0h0a5,5,0,0,0-.87-.23,8.55,8.55,0,0,0-1.12-.12v8a.77.77,0,0,0,.56.24l.1,0a.26.26,0,0,1,.14.07.29.29,0,0,0,.21.1l.09.06a.2.2,0,0,1,.09,0h0a2.34,2.34,0,0,1,.26.19,2.6,2.6,0,0,0,.37.23l.35-.35.7.8Z" transform="translate(-2.65 -5)"/><path class="cls-7" d="M526.7,39a13.17,13.17,0,0,1-7.92,2.58,10.59,10.59,0,0,1-7.67-2.86,9.75,9.75,0,0,1-3.1-7.53,12.26,12.26,0,0,1,2.68-7.92,11,11,0,0,1,7.22-4.12l.07.21c-.28.19-.57.41-.89.67s-.61.51-.89.76a12.33,12.33,0,0,0-3.83,9.53l0,0v.35l0,0c0,.35,0,1,.1,1.78a9.53,9.53,0,0,0,1.33,4.26,6,6,0,0,0,3.07,3,7.68,7.68,0,0,0,2.4.31h.07a.58.58,0,0,1,.21,0h.39a1,1,0,0,1,.41,0l.07,0h.18V29.4l-.94,1.22v4.15a2.87,2.87,0,0,1-.49,1.43,3.76,3.76,0,0,1-3.46,1.95h-.24v-.24l0,0a.25.25,0,0,1,.06-.17l0,0,0,.1,0-.17c0-.12,0-.23.07-.32l.07-.35V24.24l-.87.52V23.19l7.92-4.88a3.35,3.35,0,0,0,2.65,1.57l.1,0,.1,0,.25-.05.31-.12.77-.39.73.56L522,27.48q7.19,1.29,7.18,6.56A5.77,5.77,0,0,1,526.7,39ZM520.48,21.9a2.6,2.6,0,0,0-.37-.31l-.45.24v6.84l4.7-6.35a4.33,4.33,0,0,1-1.91.49,3.29,3.29,0,0,1-1.78-.7Zm4.13,10.15a4.36,4.36,0,0,0-2.69-3v3.07l.49.13.32.08h.62A2.67,2.67,0,0,0,524.61,32.05Zm.23,3.21c0-.3,0-.61,0-.91v-.28a3,3,0,0,1,0-.7l0,0a.53.53,0,0,0-.18.07,1.45,1.45,0,0,1-.41.1l-.06,0,0,0a2.36,2.36,0,0,1-.66.14h-.63a1.62,1.62,0,0,1-.7-.14.45.45,0,0,1-.17,0h0v2.34l.42-.1h.56a4.86,4.86,0,0,1,1.81.38C524.76,35.85,524.8,35.56,524.84,35.26Zm-.68,2.09A3.59,3.59,0,0,0,523,37h-.21l-.07,0a2.58,2.58,0,0,0-.45.07,1.76,1.76,0,0,1-.28.07h0l-.07,0h-.07v2.34A5,5,0,0,0,524.16,37.35Z" transform="translate(-2.65 -5)"/><path class="cls-7" d="M541,31.07c-.28.14-.83.45-1.66.93l-3.37,2a7.19,7.19,0,0,0-.69.45V37a15.15,15.15,0,0,1,2,.45,13.52,13.52,0,0,1,1.73.66l.84-.87.87.8-3.17,3.49-.35-.17c-.49-.26-1-.5-1.43-.72a6.48,6.48,0,0,0-1.61-.5,13.51,13.51,0,0,0-2.65-.32,5.93,5.93,0,0,0-.84.06c-.28,0-.55.07-.83.12a1.4,1.4,0,0,1,.14-.3.72.72,0,0,1,.14-.19v0c.16-.25.29-.46.4-.62a1.27,1.27,0,0,1,.19-.28,5,5,0,0,1,.94-.84V29.4a5.14,5.14,0,0,0-.56-1.75v-.48l.32.31h.21l0,0h.11l.1,0H532a11.57,11.57,0,0,0,6.21-2.3,12.66,12.66,0,0,0,.45,1.36,14.39,14.39,0,0,0,.77,1.64c.3.53.58,1,.85,1.48s.52.84.75,1.17Zm-5.44-2.75-.28.07v4.46l1.88-1.22-.33-.54c-.13-.22-.27-.51-.44-.85s-.31-.62-.45-.95S535.64,28.64,535.53,28.32Z" transform="translate(-2.65 -5)"/><path class="cls-7" d="M554.61,27.58c.07,0,.1.1.1.21a2.84,2.84,0,0,1-.42,1.05V39h1.36q-.35,0-3.17,3.24c-.1-.4-1.14-1.55-3.14-3.45h.8v-9.7l-1.36-1.15L547,29.26v9.56h1.5a9.27,9.27,0,0,0-3.1,2.58,4.49,4.49,0,0,1-.7.9s0,0,0,0l0-.07c-.21-.93-1.29-2-3.24-3.1l-.07-.21h1.36V29.82c-.33-1.28-.88-1.94-1.64-2l3.07-2.3a9.24,9.24,0,0,1,2.58,1.85,12.11,12.11,0,0,0,3.59-1.92l.45-.35A17.48,17.48,0,0,0,554.61,27.58Z" transform="translate(-2.65 -5)"/><path class="cls-7" d="M567.48,31.07c-.28.14-.84.45-1.66.93s-2,1.13-3.37,2a6.13,6.13,0,0,0-.69.45V37a15.15,15.15,0,0,1,2,.45,13.52,13.52,0,0,1,1.73.66l.83-.87.88.8L564,41.57l-.35-.17c-.48-.26-1-.5-1.43-.72a6.4,6.4,0,0,0-1.6-.5,13.51,13.51,0,0,0-2.65-.32,5.93,5.93,0,0,0-.84.06l-.84.12c.05-.12.1-.22.14-.3a1.89,1.89,0,0,1,.14-.19v0c.17-.25.3-.46.4-.62a1.55,1.55,0,0,1,.2-.28,5,5,0,0,1,.94-.84V29.4a5.14,5.14,0,0,0-.56-1.75v-.48l.31.31h.21l0,0h.1l.11,0h.14a11.63,11.63,0,0,0,6.21-2.3,12.66,12.66,0,0,0,.45,1.36,12.86,12.86,0,0,0,.77,1.64c.3.53.58,1,.85,1.48s.52.84.75,1.17ZM562,28.32l-.27.07v4.46l1.88-1.22-.33-.54c-.13-.22-.28-.51-.44-.85s-.31-.62-.45-.95S562.15,28.64,562,28.32Z" transform="translate(-2.65 -5)"/><path class="cls-7" d="M571.42,25a9.16,9.16,0,0,1,2.51,1.85h.1a1.3,1.3,0,0,0,.42-.11A13.37,13.37,0,0,0,577,25.32l.49-.35A8.55,8.55,0,0,0,580.8,27a2,2,0,0,1-.84,1.29,3.19,3.19,0,0,1-1.71.63l-.45,0a10,10,0,0,1-2.65-.42,3.16,3.16,0,0,0-.56-.07c-.4,0-.59.14-.59.42v9.56h1.5a9.72,9.72,0,0,0-3.14,2.58c-.42.63-.66.94-.73.94v-.07l0,0c0-.07-.05-.14-.07-.21a3.4,3.4,0,0,0-.42-.7,8.67,8.67,0,0,0-2.68-2.23l0-.21h1.36V29.47c-.39-1.14-1-1.73-1.74-1.78Z" transform="translate(-2.65 -5)"/><path class="cls-7" d="M581.46,38.78c0,.07-.08.11-.1.11a.29.29,0,0,1,.07-.14Zm12.91-.21,1.29.18-3.11,3.52-2.65-2.48-2.33,2.48c-2.14-2.09-4.18-3.26-6.11-3.49l.11-.17a1.84,1.84,0,0,0,.21-.25l.38-.56V28.6a2.12,2.12,0,0,1-.52-1.08v-.07a27,27,0,0,0,5.61-2.52q2.87,1,5.79,2V37.28A1.67,1.67,0,0,0,594.37,38.57ZM589,28.77a26.68,26.68,0,0,0-3.07-1.25v0l.14.1v8.86A17.59,17.59,0,0,1,589,38.29Z" transform="translate(-2.65 -5)"/><path class="cls-7" d="M600.54,40.87a5.29,5.29,0,0,0-3.52-1.7,1.31,1.31,0,0,0-1.19.59v-.49a5,5,0,0,1,.28-.8,3.14,3.14,0,0,1,1.33-1.5V28.53h-.6a2.1,2.1,0,0,1-.55.21,1.71,1.71,0,0,1-.32.1l0,.07h-.07l-.39.21v-.24a.48.48,0,0,1,0-.21v-.11l0-.07a.41.41,0,0,1,0-.21V28a.75.75,0,0,1,0-.21c0-.07,0-.15,0-.25v-.2l0-.11V27a4.18,4.18,0,0,1-.14-1.26,7.29,7.29,0,0,0,.75.35,3.53,3.53,0,0,0,.47.14,1.87,1.87,0,0,1,.46,0h.28V24.59l0-.07v-.39l-.07-.1a.75.75,0,0,1-.05-.16.75.75,0,0,0,0-.16v0a.39.39,0,0,1-.07-.28l.24-.07,0,.07h.17v0a4.86,4.86,0,0,0,3.7-2.16v.46l0,0a.81.81,0,0,0,0,.21,1.64,1.64,0,0,1-.09.35v0a.48.48,0,0,1,0,.18,4,4,0,0,0-.14.83v2.8H602l.07,0a2.09,2.09,0,0,0,1.22-.49v.39a.49.49,0,0,0,0,.2,2.16,2.16,0,0,0-.11.88h0a13.83,13.83,0,0,0,.17,1.95l-.38-.21,0,0h0a5,5,0,0,0-.87-.23,8.55,8.55,0,0,0-1.12-.12v8a.77.77,0,0,0,.56.24l.1,0a.26.26,0,0,1,.14.07.29.29,0,0,0,.21.1.2.2,0,0,0,.09.06.2.2,0,0,1,.09,0h0a2.34,2.34,0,0,1,.26.19,2.6,2.6,0,0,0,.37.23l.35-.35.7.8Z" transform="translate(-2.65 -5)"/><path class="cls-7" d="M616.59,37.6a1.68,1.68,0,0,0,.8,1.29,9.87,9.87,0,0,0-6,3c-1.34-1.39-3.69-2.27-7-2.62-.09,0-.14,0-.14-.1a1.6,1.6,0,0,1,.42-.73,8.72,8.72,0,0,1,.87-1.08V28.56a2.07,2.07,0,0,1-.56-1.11v0a9.72,9.72,0,0,0,5.86-2.09,20.29,20.29,0,0,0,6.49,2.23,2.28,2.28,0,0,0-.66,1.08Zm-4.08-8.48a20.37,20.37,0,0,0-3.18-1.19c-.05,0-.07,0-.07,0v9.17c.37.4,1.45.78,3.25,1.15Z" transform="translate(-2.65 -5)"/><path class="cls-7" d="M621.43,25a9.16,9.16,0,0,1,2.51,1.85h.11a1.43,1.43,0,0,0,.42-.11,13.37,13.37,0,0,0,2.58-1.46l.49-.35A8.48,8.48,0,0,0,630.82,27a2,2,0,0,1-.84,1.29,3.19,3.19,0,0,1-1.71.63l-.45,0a9.9,9.9,0,0,1-2.65-.42,3.16,3.16,0,0,0-.56-.07q-.6,0-.6.42v9.56h1.5a9.66,9.66,0,0,0-3.13,2.58c-.42.63-.67.94-.74.94v-.07l0,0a1.72,1.72,0,0,1-.07-.21,3.91,3.91,0,0,0-.42-.7,8.61,8.61,0,0,0-2.69-2.23l0-.21h1.36V29.47c-.4-1.14-1-1.73-1.74-1.78Z" transform="translate(-2.65 -5)"/><line class="cls-6" x1="24.94" y1="45.59" x2="642.82" y2="45.59"/></svg>